<svg xmlns="http://www.w3.org/2000/svg" xmlns:xlink="http://www.w3.org/1999/xlink" version="1.1" id="Layer_1" x="0px" y="0px" width="100px" height="100px" viewBox="0 0 100 100" enable-background="new 0 0 100 100" xml:space="preserve">
<path id="bug_1_" d="M82.181,8.94c-0.07-0.319-0.388-0.521-0.705-0.45C76.962,9.492,57.642,20.712,54.27,24.289  c-1.794,1.903-2.568,4.146-2.892,5.875c-0.626-0.933-1.13-1.61-1.13-1.61s-0.722,0.965-1.514,2.203  c-0.264-1.782-0.993-4.339-3.001-6.465C42.36,20.715,23.042,9.498,18.526,8.493c-0.322-0.079-0.635,0.128-0.709,0.447  c-0.066,0.316,0.131,0.632,0.453,0.703c4.271,0.95,23.41,12.07,26.601,15.454c2.547,2.708,2.797,6.311,2.807,7.422  c-0.278,0.502-0.517,0.997-0.683,1.453c-0.583,0.089-1.035,0.59-1.035,1.201c0,0.558,0.378,1.021,0.885,1.167  c0.403,1.326,1.425,2.097,1.425,2.097s-1.235,0.552-2.325,1.407l-4.504-8.329h-1.287l-0.495,4.057L36.595,32.8L36.1,31.81  l-0.495,0.099v0.593h-0.59v0.495l0.99,0.298l3.554,3.56l0.99-0.097l0.193-3.167l4.246,7.136c-0.333,0.393-0.589,0.82-0.683,1.27  c0,0-4.112,0.749-3.25,3.699l-5.455-3.204l-2.174,0.495l-6.623,7.518l-6.03-1.184l0.098,0.592l-0.593,0.594l6.332,0.889l1.176-0.1  l6.332-7.416l7.059,3.985c0.077,2.442,0.339,6.617,1.147,8.771c0,0-0.184,0.449-0.428,1.241c-2.919,0.757-13.25,10.254-14.011,13  c-0.796,2.866-2.472,12.86,1.485,12.062l1.181,4.846l-4.251,4.049l-0.99,0.197l0.792,0.495l0.594,0.99l0.592-1.386l4.549-4.352  c0,0-1.089-5.038-1.187-5.241c3.268-2.374-1.578-7.019-1.676-10.188c0,0,3.364-3.169,5.925-5.83  c2.288-2.371,4.875-5.819,6.459-6.716c-0.901,3.821-1.656,10.449,1.753,16.21c0,0,3.555,9.104,7.125,9.104  c3.565,0,7.115-9.104,7.115-9.104c3.381-5.702,2.671-12.261,1.779-16.097c1.602,1.025,4.095,4.319,6.287,6.611  c2.572,2.67,5.933,5.83,5.933,5.83c-0.099,3.166-4.945,7.816-1.678,10.188c-0.099,0.194-1.182,5.241-1.182,5.241l4.543,4.352  l0.588,1.386l0.592-0.981l0.801-0.495l-0.99-0.197l-4.261-4.055l1.18-4.846c3.954,0.798,2.286-9.197,1.484-12.062  c-0.745-2.708-10.729-11.923-13.854-12.959c-0.25-0.816-0.439-1.288-0.439-1.288c0.812-2.175,1.066-6.401,1.159-8.831l6.96-3.927  l6.32,7.417l1.185,0.097l6.331-0.889l-0.591-0.593l0.097-0.594l-6.031,1.187l-6.623-7.518l-2.173-0.495l-5.335,3.135  c0.777-2.891-3.273-3.627-3.273-3.627c-0.096-0.501-0.407-0.977-0.807-1.406l4.162-7l0.197,3.167l0.99,0.097l3.56-3.56l0.983-0.298  v-0.501h-0.591v-0.59l-0.492-0.099l-0.495,0.99l-3.063,2.771l-0.495-4.057h-1.287l-4.433,8.223c-1.054-0.793-2.19-1.297-2.19-1.297  s1.02-0.76,1.425-2.08c0.55-0.125,0.935-0.607,0.935-1.179c0-0.627-0.469-1.14-1.08-1.208c-0.269-0.698-0.685-1.488-1.133-2.246  c0.128-1.551,0.661-4.387,2.775-6.626c3.188-3.384,22.328-14.505,26.598-15.454C82.049,9.572,82.25,9.256,82.181,8.94z"/>
</svg>