<?xml version="1.0" encoding="UTF-8" standalone="no"?>
<svg
   xmlns:dc="http://purl.org/dc/elements/1.1/"
   xmlns:cc="http://creativecommons.org/ns#"
   xmlns:rdf="http://www.w3.org/1999/02/22-rdf-syntax-ns#"
   xmlns:svg="http://www.w3.org/2000/svg"
   xmlns="http://www.w3.org/2000/svg"
   xmlns:sodipodi="http://sodipodi.sourceforge.net/DTD/sodipodi-0.dtd"
   xmlns:inkscape="http://www.inkscape.org/namespaces/inkscape"
   version="1.1"
   id="Your_Icon"
   x="0px"
   y="0px"
   width="100px"
   height="100px"
   viewBox="0 0 100 100"
   enable-background="new 0 0 100 100"
   xml:space="preserve"
   inkscape:version="0.48.4 r9939"
   sodipodi:docname="checkCross.svg"><metadata
     id="metadata9"><rdf:RDF><cc:Work
         rdf:about=""><dc:format>image/svg+xml</dc:format><dc:type
           rdf:resource="http://purl.org/dc/dcmitype/StillImage" /><dc:title></dc:title></cc:Work></rdf:RDF></metadata><defs
     id="defs7" /><sodipodi:namedview
     pagecolor="#ffffff"
     bordercolor="#666666"
     borderopacity="1"
     objecttolerance="10"
     gridtolerance="10"
     guidetolerance="10"
     inkscape:pageopacity="0"
     inkscape:pageshadow="2"
     inkscape:window-width="1215"
     inkscape:window-height="776"
     id="namedview5"
     showgrid="false"
     inkscape:zoom="4.72"
     inkscape:cx="32.729445"
     inkscape:cy="53.487674"
     inkscape:window-x="65"
     inkscape:window-y="24"
     inkscape:window-maximized="1"
     inkscape:current-layer="Your_Icon" /><path
     d="m 53.581475,97.016949 c -1.894563,0 -3.71647,-0.631458 -5.074853,-1.756867 L 30.506434,80.211106 c -2.79954,-2.337624 -2.79954,-6.127906 0,-8.470908 2.805056,-2.343 7.341892,-2.343 10.146948,0 L 52.499,81.630733 83.207474,43.493599 c 2.212776,-2.744768 6.671436,-3.473019 9.96209,-1.623201 3.288814,1.840601 4.157003,5.567892 1.958022,8.3165 L 59.536472,94.364365 c -1.202955,1.489533 -3.124188,2.447475 -5.260631,2.619552 -0.229922,0.0169 -0.459845,0.03303 -0.694366,0.03303"
     id="path3"
     inkscape:connector-curvature="0"
     style="fill:#000000" /><path
     inkscape:connector-curvature="0"
     d="M 47.256841,3.8480771 C 32.775687,18.500757 18.29271,33.15343 3.8097283,47.806103 -0.55685176,52.22329 6.208067,59.066612 10.576475,54.651268 25.057629,39.998596 39.540605,25.345922 54.023582,10.693249 58.388339,6.2742117 51.62342,-0.56726675 47.256841,3.8480771 l 0,0 z"
     id="path236" /><path
     inkscape:connector-curvature="0"
     d="M 54.038076,47.745846 C 39.553277,33.09686 25.068476,18.44603 10.583677,3.7951944 6.2170917,-0.62199307 -0.54782703,6.221329 3.8169307,10.640366 18.301735,25.289352 32.786534,39.940182 47.271334,54.591012 c 4.368403,4.415343 11.131492,-2.427978 6.766742,-6.845166 l 0,0 z"
     id="path236-4" /></svg>