<svg xmlns="http://www.w3.org/2000/svg" xmlns:xlink="http://www.w3.org/1999/xlink" version="1.1" id="Your_Icon" x="0px" y="0px" width="100px" height="100px" viewBox="0 0 100 100" enable-background="new 0 0 100 100" xml:space="preserve">
<path fill="#000000" d="M51.396,75.119c-2.059,0-4.04-0.822-5.517-2.287l-19.572-19.59c-3.044-3.043-3.044-7.977,0-11.027  c3.05-3.05,7.983-3.05,11.033,0l12.88,12.875L83.609,5.445c2.407-3.573,7.254-4.521,10.832-2.113  c3.577,2.396,4.52,7.248,2.129,10.826L57.872,71.666c-1.307,1.939-3.398,3.186-5.719,3.41  C51.903,75.098,51.653,75.119,51.396,75.119"/>
<path fill="#000000" d="M78.806,59.021v23.074c0,2.881-2.33,5.201-5.206,5.201H21.603c-2.87,0-5.206-2.32-5.206-5.201V30.092  c0-2.864,2.336-5.2,5.206-5.2h36.204l6.938-10.402H21.603C13.009,14.49,6,21.499,6,30.092v52.003  c0,8.604,7.009,15.602,15.603,15.602H73.6c8.604,0,15.603-6.998,15.603-15.602V43.418L78.806,59.021z"/>
</svg>