<svg xmlns="http://www.w3.org/2000/svg" xmlns:xlink="http://www.w3.org/1999/xlink" version="1.1" id="Layer_1" x="0px" y="0px" width="100px" height="100px" viewBox="0 0 100 100" enable-background="new 0 0 100 100" xml:space="preserve">
<path fill="none" stroke="#000000" stroke-width="7.6542" stroke-linecap="round" stroke-linejoin="round" stroke-miterlimit="10" d="  M49.544,68.611c2.344,5.265,6.981,31.116,17.765,25.524c6.408-3.321,6.992-18.346,7.675-24.301  c1.758-15.361,1.352-30.841,1.352-46.272"/>
<path fill="none" stroke="#000000" stroke-width="7.6542" stroke-linecap="round" stroke-linejoin="round" stroke-miterlimit="10" d="  M10,44.645c8.877-6.102,19.96-3.997,27.253,3.6"/>
<g>
	<path d="M76.376,40.486c8.621,0,15.725-10.188,16.842-23.389h-33.68C60.654,30.298,67.756,40.486,76.376,40.486z"/>
</g>
<path d="M73.825,21.527c0,2.113-1.715,3.827-3.827,3.827l0,0c-2.113,0-3.827-1.714-3.827-3.827v-17.7  C66.171,1.714,67.885,0,69.998,0l0,0c2.112,0,3.827,1.714,3.827,3.827V21.527z"/>
<path d="M86.582,21.527c0,2.113-1.714,3.827-3.827,3.827l0,0c-2.113,0-3.826-1.714-3.826-3.827v-17.7  C78.929,1.714,80.642,0,82.755,0l0,0c2.113,0,3.827,1.714,3.827,3.827V21.527z"/>
<path d="M32.898,69.715c-1.749,1.184-4.129,0.724-5.312-1.023l0,0c-1.186-1.754-0.722-4.134,1.027-5.317l27.054-18.283  c1.752-1.182,4.131-0.726,5.314,1.026l0,0c1.184,1.754,0.724,4.128-1.025,5.317L32.898,69.715z"/>
</svg>