<?xml version="1.0" encoding="UTF-8" standalone="no"?>
<svg
   xmlns:dc="http://purl.org/dc/elements/1.1/"
   xmlns:cc="http://creativecommons.org/ns#"
   xmlns:rdf="http://www.w3.org/1999/02/22-rdf-syntax-ns#"
   xmlns:svg="http://www.w3.org/2000/svg"
   xmlns="http://www.w3.org/2000/svg"
   xmlns:sodipodi="http://sodipodi.sourceforge.net/DTD/sodipodi-0.dtd"
   xmlns:inkscape="http://www.inkscape.org/namespaces/inkscape"
   version="1.1"
   id="Layer_1"
   x="0px"
   y="0px"
   width="88.324997"
   height="88.441505"
   viewBox="0 0 88.324998 88.441506"
   enable-background="new 0 0 100 100"
   xml:space="preserve"
   inkscape:version="0.48.4 r9939"
   sodipodi:docname="internal_link.svg"><metadata
     id="metadata15"><rdf:RDF><cc:Work
         rdf:about=""><dc:format>image/svg+xml</dc:format><dc:type
           rdf:resource="http://purl.org/dc/dcmitype/StillImage" /><dc:title /></cc:Work></rdf:RDF></metadata><defs
     id="defs13" /><sodipodi:namedview
     pagecolor="#ffffff"
     bordercolor="#666666"
     borderopacity="1"
     objecttolerance="10"
     gridtolerance="10"
     guidetolerance="10"
     inkscape:pageopacity="0"
     inkscape:pageshadow="2"
     inkscape:window-width="1855"
     inkscape:window-height="1056"
     id="namedview11"
     showgrid="false"
     fit-margin-top="0"
     fit-margin-left="0"
     fit-margin-right="0"
     fit-margin-bottom="0"
     inkscape:zoom="3.337544"
     inkscape:cx="-102.99283"
     inkscape:cy="96.671546"
     inkscape:window-x="1345"
     inkscape:window-y="24"
     inkscape:window-maximized="1"
     inkscape:current-layer="Layer_1" /><line
     stroke-miterlimit="10"
     x1="56.914993"
     y1="0.46150824"
     x2="56.914993"
     y2="6.2115083"
     id="line5"
     style="fill:none;stroke:#000000;stroke-width:0.25;stroke-miterlimit:10" /><path
     d="m 39.800074,45.71031 c 0.024,0.113 0.047,0.223 0.074,0.334 0.035,0.117 0.075,0.231 0.117,0.346 0.023,0.062 0.037,0.125 0.064,0.187 0.016,0.032 0.03,0.06 0.049,0.092 0.048,0.119 0.107,0.227 0.17,0.336 0.05,0.089 0.095,0.179 0.152,0.265 0.062,0.1 0.139,0.195 0.209,0.292 0.065,0.082 0.124,0.162 0.19,0.242 0.081,0.092 0.172,0.178 0.258,0.262 0.07,0.068 0.139,0.139 0.212,0.202 0.093,0.083 0.196,0.158 0.3,0.232 0.08,0.058 0.152,0.114 0.236,0.163 0.104,0.069 0.219,0.128 0.329,0.186 0.091,0.046 0.175,0.093 0.262,0.132 0.044,0.019 0.081,0.043 0.121,0.061 0.074,0.03 0.154,0.046 0.234,0.072 0.095,0.033 0.19,0.065 0.288,0.092 0.123,0.034 0.246,0.059 0.369,0.083 0.096,0.019 0.188,0.036 0.289,0.046 0.131,0.018 0.263,0.022 0.393,0.028 0.064,0.002 0.12,0.012 0.186,0.012 l 30.298,-0.186 c 2.535,-0.017 4.566,-2.078 4.554,-4.605 -0.019,-2.525 -2.084,-4.563 -4.604,-4.546 l -19.258,0.121 29.79,-30.1619995 c 1.112,-1.1259985 1.526,-2.6779973 1.233,-4.1179973 -0.174,-0.863 -0.596,-1.691 -1.272,-2.357 -0.897,-0.888 -2.073,-1.325 -3.245,-1.32 -1.17,0.007 -2.337,0.459 -3.227,1.361 l -0.002,10e-4 -29.787,30.1579968 -0.121,-19.255 c -0.014,-2.523 -2.07,-4.5639995 -4.602,-4.5449995 -1.268,0.005 -2.408,0.5259995 -3.233,1.3569995 -0.817,0.834 -1.325,1.98 -1.317,3.242 l 0.186,30.308 c 0,0.063 0.016,0.124 0.016,0.189 0.009,0.123 0.015,0.25 0.032,0.375 0.011,0.109 0.035,0.211 0.057,0.317 z"
     id="path7"
     inkscape:connector-curvature="0" /><path
     d="m 5.957,71.990506 c 0,5.717 4.635,10.354 10.354,10.354 l 55.616,0.065 c 5.719,0 10.354,-4.636 10.354,-10.354 l -0.091,-40.782 h 6.135 v 40.849 c 0,9.014 -7.307,16.319 -16.319,16.319 l -56.36,-0.066 c -8.597,0 -15.564,-6.969 -15.564,-15.562 L 0,16.532506 C 0,7.518506 7.306,0.21250599 16.32,0.21250599 l 41.138,-0.084 V 6.270506 l -41.063,-0.024 c -5.718,0 -10.354,4.635 -10.354,10.354 l -0.084,55.39 z"
     id="path9"
     inkscape:connector-curvature="0" /></svg>