<?xml version="1.0" encoding="UTF-8" standalone="no"?>
<svg
   xmlns:dc="http://purl.org/dc/elements/1.1/"
   xmlns:cc="http://creativecommons.org/ns#"
   xmlns:rdf="http://www.w3.org/1999/02/22-rdf-syntax-ns#"
   xmlns:svg="http://www.w3.org/2000/svg"
   xmlns="http://www.w3.org/2000/svg"
   xmlns:sodipodi="http://sodipodi.sourceforge.net/DTD/sodipodi-0.dtd"
   xmlns:inkscape="http://www.inkscape.org/namespaces/inkscape"
   version="1.1"
   id="Layer_1"
   x="0px"
   y="0px"
   width="100px"
   height="100px"
   viewBox="0 0 100 100"
   enable-background="new 0 0 100 100"
   xml:space="preserve"
   inkscape:version="0.48.4 r9939"
   sodipodi:docname="logIn.png"><metadata
     id="metadata15"><rdf:RDF><cc:Work
         rdf:about=""><dc:format>image/svg+xml</dc:format><dc:type
           rdf:resource="http://purl.org/dc/dcmitype/StillImage" /><dc:title></dc:title></cc:Work></rdf:RDF></metadata><defs
     id="defs13" /><sodipodi:namedview
     pagecolor="#ffffff"
     bordercolor="#666666"
     borderopacity="1"
     objecttolerance="10"
     gridtolerance="10"
     guidetolerance="10"
     inkscape:pageopacity="0"
     inkscape:pageshadow="2"
     inkscape:window-width="1215"
     inkscape:window-height="776"
     id="namedview11"
     showgrid="false"
     inkscape:zoom="2.36"
     inkscape:cx="50"
     inkscape:cy="50"
     inkscape:window-x="65"
     inkscape:window-y="24"
     inkscape:window-maximized="1"
     inkscape:current-layer="Layer_1" /><path
     d="M91.5,18.417c0,3.728-3.022,6.75-6.75,6.75h-43c-3.728,0-6.75-3.022-6.75-6.75l0,0c0-3.728,3.022-6.75,6.75-6.75h43  C88.478,11.667,91.5,14.689,91.5,18.417L91.5,18.417z"
     id="path3" /><path
     d="M91.5,72.75c0,3.729-3.022,6.75-6.75,6.75h-43c-3.728,0-6.75-3.021-6.75-6.75l0,0c0-3.729,3.022-6.75,6.75-6.75h43  C88.478,66,91.5,69.021,91.5,72.75L91.5,72.75z"
     id="path5" /><path
     d="M84.75,79.333c-3.729,0-6.75-3.022-6.75-6.75v-53c0-3.728,3.021-6.75,6.75-6.75l0,0c3.729,0,6.75,3.022,6.75,6.75v53  C91.5,76.311,88.479,79.333,84.75,79.333L84.75,79.333z"
     id="path7" /><path
     d="m 54.583998,41.53775 -15.054,-15.054 c -2.097,-2.097 -5.497,-2.097 -7.594,0 -2.097,2.097 -2.097,5.497 0,7.594 l 5.877,5.877 -26.079,0 c -2.9669997,0 -5.3709997,2.404 -5.3709997,5.369 0,2.966 2.404,5.369 5.3709997,5.369 l 26.088,0 -5.882,5.875 c -2.099,2.096 -2.101,5.495 -0.005,7.594 1.049,1.05 2.424,1.575 3.799,1.575 1.374,0 2.747,-0.523 3.795,-1.57 l 15.053,-15.034 c 1.008,-1.007 1.574,-2.373 1.575,-3.797 10e-4,-1.425 -0.566,-2.792 -1.573,-3.798 z"
     id="path9"
     inkscape:connector-curvature="0" /></svg>