<?xml version="1.0" encoding="UTF-8" standalone="no"?>
<svg
   xmlns:dc="http://purl.org/dc/elements/1.1/"
   xmlns:cc="http://creativecommons.org/ns#"
   xmlns:rdf="http://www.w3.org/1999/02/22-rdf-syntax-ns#"
   xmlns:svg="http://www.w3.org/2000/svg"
   xmlns="http://www.w3.org/2000/svg"
   xmlns:sodipodi="http://sodipodi.sourceforge.net/DTD/sodipodi-0.dtd"
   xmlns:inkscape="http://www.inkscape.org/namespaces/inkscape"
   version="1.1"
   x="0px"
   y="0px"
   width="80px"
   height="80px"
   viewBox="0 0 80 80"
   enable-background="new 0 0 80 80"
   xml:space="preserve"
   id="svg2"
   inkscape:version="0.48.4 r9939"
   sodipodi:docname="playSquare.svg"><metadata
     id="metadata12"><rdf:RDF><cc:Work
         rdf:about=""><dc:format>image/svg+xml</dc:format><dc:type
           rdf:resource="http://purl.org/dc/dcmitype/StillImage" /><dc:title></dc:title></cc:Work></rdf:RDF></metadata><defs
     id="defs10" /><sodipodi:namedview
     pagecolor="#ffffff"
     bordercolor="#666666"
     borderopacity="1"
     objecttolerance="10"
     gridtolerance="10"
     guidetolerance="10"
     inkscape:pageopacity="0"
     inkscape:pageshadow="2"
     inkscape:window-width="1215"
     inkscape:window-height="776"
     id="namedview8"
     showgrid="false"
     inkscape:zoom="4.17193"
     inkscape:cx="2.33595"
     inkscape:cy="24.067381"
     inkscape:window-x="65"
     inkscape:window-y="24"
     inkscape:window-maximized="1"
     inkscape:current-layer="g6" /><g
     id="Layer_1" /><g
     id="Layer_2"><path
       d="M64.622,2.411H14.995c-6.627,0-12,5.373-12,12v49.897c0,6.627,5.373,12,12,12h49.627c6.627,0,12-5.373,12-12V14.411   C76.622,7.783,71.249,2.411,64.622,2.411z M24.125,63.906V15.093L61,39.168L24.125,63.906z"
       id="path6" /></g><g
     transform="translate(-125.59347,-14.40703)"
     id="g3"
     style="fill:#ff0000"><g
       transform="translate(-8.1054875,6.8442927)"
       id="Captions" /><g
       transform="translate(-8.1054875,6.8442927)"
       id="Your_Icon"><g
         id="g6"><path
           inkscape:connector-curvature="0"
           d="m 197.54274,16.080433 c -18.93298,17.761523 -37.86834,35.523044 -56.80371,53.284566 -5.70896,5.35438 3.13564,13.649648 8.84698,8.297498 18.93299,-17.76152 37.86836,-35.523041 56.80372,-53.284564 5.70658,-5.356613 -3.13802,-13.649644 -8.84699,-8.2975 l 0,0 z"
           id="path236"
           style="fill:#ff2a2a" /><path
           style="fill:#ff2a2a"
           inkscape:connector-curvature="0"
           d="M 206.44275,69.398683 C 187.50498,51.64163 168.56723,33.882344 149.62948,16.123056 c -5.70896,-5.354379 -14.55357,2.940887 -8.84699,8.2975 18.93774,17.757053 37.87549,35.516339 56.81324,53.275623 5.71137,5.35215 14.55359,-2.943115 8.84702,-8.297496 l 0,0 z"
           id="path236-7" /></g></g></g></svg>