<svg xmlns="http://www.w3.org/2000/svg" xmlns:xlink="http://www.w3.org/1999/xlink" version="1.1" id="Layer_1" x="0px" y="0px" width="100px" height="100px" viewBox="0 0 100 100" enable-background="new 0 0 100 100" xml:space="preserve">
<path d="M33.929,33.929c-8.875,8.875-8.875,23.265,0,32.141c8.876,8.876,23.266,8.876,32.142,0c8.875-8.876,8.875-23.266,0-32.141  C57.194,25.054,42.805,25.054,33.929,33.929z M62.856,62.856c-7.101,7.1-18.613,7.1-25.713,0c-7.101-7.101-7.101-18.613,0-25.713  c7.1-7.1,18.612-7.1,25.713,0C69.956,44.244,69.956,55.756,62.856,62.856z"/>
<g>
	<path d="M47.982,36.647c0.542-0.583,1.262-0.876,2.151-0.876c1.076,0,1.797,0.375,2.16,1.119c0.365,0.746,0.544,1.82,0.544,3.224   c0,0.828-0.042,1.666-0.132,2.52l-0.805,9.264c-0.088,1.104-0.277,1.949-0.563,2.538c-0.292,0.59-0.764,0.886-1.427,0.886   c-0.681,0-1.148-0.287-1.413-0.858c-0.264-0.569-0.451-1.438-0.563-2.604l-0.604-9.001c-0.112-1.755-0.169-3.014-0.169-3.778   C47.162,38.041,47.434,37.229,47.982,36.647z"/>
	<path d="M51.996,63.476c-0.567,0.502-1.221,0.753-1.977,0.753c-0.765,0-1.431-0.248-2.001-0.744   c-0.57-0.494-0.858-1.186-0.858-2.075c0-0.776,0.273-1.438,0.819-1.984c0.545-0.544,1.214-0.814,2.005-0.814   s1.459,0.271,2.02,0.814c0.559,0.546,0.834,1.209,0.834,1.984C52.838,62.287,52.559,62.975,51.996,63.476z"/>
</g>
</svg>