<?xml version="1.0" encoding="UTF-8" standalone="no"?>
<svg
   xmlns:dc="http://purl.org/dc/elements/1.1/"
   xmlns:cc="http://creativecommons.org/ns#"
   xmlns:rdf="http://www.w3.org/1999/02/22-rdf-syntax-ns#"
   xmlns:svg="http://www.w3.org/2000/svg"
   xmlns="http://www.w3.org/2000/svg"
   xmlns:sodipodi="http://sodipodi.sourceforge.net/DTD/sodipodi-0.dtd"
   xmlns:inkscape="http://www.inkscape.org/namespaces/inkscape"
   version="1.1"
   id="Layer_1"
   x="0px"
   y="0px"
   width="73.428001"
   height="59.549999"
   viewBox="0 0 73.428001 59.549999"
   enable-background="new 0 0 100 100"
   xml:space="preserve"
   inkscape:version="0.48.4 r9939"
   sodipodi:docname="bookmarksWhiteBg.svg"><metadata
     id="metadata112"><rdf:RDF><cc:Work
         rdf:about=""><dc:format>image/svg+xml</dc:format><dc:type
           rdf:resource="http://purl.org/dc/dcmitype/StillImage" /></cc:Work></rdf:RDF></metadata><defs
     id="defs110" /><sodipodi:namedview
     pagecolor="#ffffff"
     bordercolor="#666666"
     borderopacity="1"
     objecttolerance="10"
     gridtolerance="10"
     guidetolerance="10"
     inkscape:pageopacity="1"
     inkscape:pageshadow="2"
     inkscape:window-width="1215"
     inkscape:window-height="776"
     id="namedview108"
     showgrid="false"
     inkscape:zoom="1.18"
     inkscape:cx="220.96864"
     inkscape:cy="-80.268704"
     inkscape:window-x="65"
     inkscape:window-y="24"
     inkscape:window-maximized="1"
     inkscape:current-layer="Layer_1"
     fit-margin-top="0"
     fit-margin-left="0"
     fit-margin-right="0"
     fit-margin-bottom="0" /><path
     d="m 35.988,59.55 c -1.242,0 -2.25,-1.008 -2.25,-2.25 V 9.421 c 0,-1.242 1.008,-2.25 2.25,-2.25 1.242,0 2.25,1.008 2.25,2.25 V 57.3 c 0,1.243 -1.007,2.25 -2.25,2.25 z"
     id="path102"
     inkscape:connector-curvature="0" /><path
     d="m 12.61,27.673 c -0.397,0 -0.797,-0.105 -1.15,-0.316 -0.684,-0.407 -1.1,-1.14 -1.1,-1.934 V 3.565 c 0,-0.987 0.646,-1.86 1.588,-2.15 C 12.136,1.356 16.604,0 21.462,0 c 1.107,0 2.168,0.073 3.146,0.214 1.106,0.158 1.931,1.107 1.931,2.227 v 22.758 c 0,0.809 -0.435,1.553 -1.134,1.954 -0.701,0.401 -1.564,0.396 -2.26,-0.018 l -4.289,-2.531 -5.177,2.798 c -0.334,0.18 -0.7,0.271 -1.069,0.271 z M 14.86,5.305 v 16.342 l 2.975,-1.605 c 0.693,-0.372 1.535,-0.357 2.212,0.041 l 1.992,1.175 V 4.508 C 19.36,4.429 16.522,4.927 14.86,5.305 z"
     id="path104"
     inkscape:connector-curvature="0" /><path
     d="m 35.988,59.55 c -0.149,0 -0.299,-0.015 -0.448,-0.043 -0.599,-0.123 -1.119,-0.48 -1.447,-0.996 C 34.084,58.507 28.619,51.693 2.64,56.261 1.991,56.38 1.317,56.197 0.803,55.769 0.293,55.341 0,54.71 0,54.046 V 8.51 C 0,7.572 0.583,6.732 1.462,6.404 6.029,4.693 9.129,3.744 12.158,3.126 13.371,2.868 14.562,3.662 14.812,4.878 15.06,6.097 14.275,7.286 13.06,7.532 10.598,8.036 8.046,8.792 4.498,10.078 v 41.315 c 20.332,-3.156 28.673,0.621 31.784,3.053 11.449,-6.769 26.42,-4.604 32.646,-3.269 V 10.309 C 65.913,8.062 54.06,0.852 37.173,11.331 36.171,11.964 34.873,11.7 34.176,10.757 34.088,10.646 31.435,7.373 24.092,6.74 22.857,6.635 21.937,5.545 22.044,4.305 22.149,3.069 23.226,2.143 24.48,2.257 c 6.26,0.539 9.98,2.801 11.838,4.345 21.416,-12.27 36.224,0.832 36.375,0.97 0.47,0.428 0.735,1.031 0.735,1.664 v 44.811 c 0,0.709 -0.334,1.373 -0.899,1.799 -0.567,0.424 -1.297,0.563 -1.982,0.359 -0.202,-0.06 -20.493,-5.837 -33.284,2.95 -0.378,0.261 -0.823,0.395 -1.275,0.395 z"
     id="path106"
     inkscape:connector-curvature="0" /></svg>