<svg xmlns="http://www.w3.org/2000/svg" xmlns:xlink="http://www.w3.org/1999/xlink" version="1.1" x="0px" y="0px" width="100px" height="100px" viewBox="0 0 100 100" enable-background="new 0 0 100 100" xml:space="preserve">
<g id="Captions">
	<rect x="-468" y="-414" width="185" height="99"/>
	<rect x="-276" y="-450" width="100" height="30"/>
	<text transform="matrix(1 0 0 1 -210 -433.5)" fill="#000000" font-family="'Helvetica'" font-size="2.4">http://thenounproject.com</text>
	<text transform="matrix(1 0 0 1 -268.834 -438.5)"><tspan x="0" y="0" fill="#000000" font-family="'Helvetica-Bold'" font-size="6.1578">The Noun Project</tspan><tspan x="1.12" y="4.8" fill="#000000" font-family="'Helvetica-Bold'" font-size="4">Icon Template</tspan></text>
	<text transform="matrix(1 0 0 1 -454.5 -403.5)" fill="#000000" font-family="'Helvetica-Bold'" font-size="6.1578">Reminders</text>
	<line fill="#000000" stroke="#FFFFFF" stroke-miterlimit="10" x1="-268" y1="-428.5" x2="-258" y2="-428.5"/>
	<line fill="#000000" stroke="#FFFFFF" stroke-miterlimit="10" x1="-455" y1="-397.5" x2="-438" y2="-397.5"/>
	<g>
		<g>
			<g>
				<rect x="-446.802" y="-382.682" fill="#000000" width="8.721" height="8.642"/>
				<path fill="#000000" d="M-440.455-371.688h4.747v-4.703h-4.747V-371.688z M-435.266-371.251h-5.63v-5.579h5.63V-371.251      L-435.266-371.251z M-442.221-369.938h8.279v-8.203h-8.279V-369.938L-442.221-369.938z M-433.5-369.5h-9.163v-9.079h9.163      V-369.5L-433.5-369.5z"/>
				<polygon fill="#000000" points="-442.149,-369.867 -442.292,-370.009 -434.013,-378.213 -433.871,-378.071     "/>
			</g>
		</g>
	</g>
	<rect x="-455" y="-356" fill="none" width="35" height="32.5"/>
	<text transform="matrix(1 0 0 1 -455 -353.8428)"><tspan x="0" y="0" fill="#000000" font-family="'Helvetica-Bold'" font-size="3">Strokes</tspan><tspan x="0" y="5" fill="#000000" font-family="'Helvetica'" font-size="2.4">Try to keep strokes at 4px</tspan><tspan x="0" y="10" fill="#000000" font-family="'Helvetica'" font-size="2.4">Minimum stroke weight is 2px</tspan><tspan x="0" y="14.5" fill="#000000" font-family="'Helvetica'" font-size="2.4">For thicker strokes use even </tspan><tspan x="0" y="17.5" fill="#000000" font-family="'Helvetica'" font-size="2.4">numbers: 6px, 8px etc.</tspan><tspan x="0" y="22" fill="#000000" font-family="'Helvetica-Bold'" font-size="2.4">Remember to expand strokes </tspan><tspan x="0" y="25" fill="#000000" font-family="'Helvetica-Bold'" font-size="2.4">before saving as an SVG </tspan></text>
	<rect x="-412.5" y="-356" fill="none" width="35" height="32.5"/>
	<text transform="matrix(1 0 0 1 -412.5 -353.8428)"><tspan x="0" y="0" fill="#000000" font-family="'Helvetica-Bold'" font-size="3">Size</tspan><tspan x="0" y="5" fill="#000000" font-family="'Helvetica'" font-size="2.4">Cannot be wider or taller than </tspan><tspan x="0" y="8.5" fill="#000000" font-family="'Helvetica'" font-size="2.4">100px (artboard size)</tspan><tspan x="0" y="13.5" fill="#000000" font-family="'Helvetica'" font-size="2.4">Scale your icon to fill as much of </tspan><tspan x="0" y="16.5" fill="#000000" font-family="'Helvetica'" font-size="2.4">the artboard as possible</tspan></text>
	<rect x="-370" y="-356" fill="none" width="35" height="32.5"/>
	<text transform="matrix(1 0 0 1 -370 -353.8428)"><tspan x="0" y="0" fill="#000000" font-family="'Helvetica-Bold'" font-size="3">Ungroup</tspan><tspan x="0" y="5" fill="#000000" font-family="'Helvetica'" font-size="2.4">If your design has more than one </tspan><tspan x="0" y="8" fill="#000000" font-family="'Helvetica'" font-size="2.4">shape, make sure to ungroup</tspan></text>
	<rect x="-326" y="-356" fill="none" width="35" height="32.5"/>
	<text transform="matrix(1 0 0 1 -326 -353.8428)"><tspan x="0" y="0" fill="#000000" font-family="'Helvetica-Bold'" font-size="3">Save as</tspan><tspan x="0" y="5" fill="#000000" font-family="'Helvetica'" font-size="2.4">Save as .SVG and make sure </tspan><tspan x="0" y="8" fill="#000000" font-family="'Helvetica'" font-size="2.4">&#8220;Use Artboards&#8221; is checked</tspan></text>
	<text transform="matrix(1.0074 0 0 1 -401.542 -383.4067)" fill="#000000" font-family="'Helvetica'" font-size="2.5731">100px</text>
	<text transform="matrix(1.0074 0 0 1 -317 -375)" fill="#000000" font-family="'Helvetica-Bold'" font-size="5.1462">.SVG</text>
	<rect x="-402.514" y="-379.185" fill="#000000" width="10.261" height="10.185"/>
	<rect x="-402.477" y="-382.234" fill="#000000" width="0.522" height="2.337"/>
	<rect x="-392.812" y="-382.234" fill="#000000" width="0.523" height="2.337"/>
	<rect x="-403" y="-381.663" fill="#000000" width="11.233" height="0.572"/>
	<g>
		<rect x="-359.805" y="-380.156" fill="#000000" width="10.305" height="10.156"/>
		<rect x="-352.809" y="-385.293" fill="#000000" width="3.308" height="3.261"/>
	</g>
	<rect x="-454.5" y="-391.5" fill="#000000" stroke="#FFFFFF" stroke-miterlimit="10" width="30" height="30"/>
	<rect x="-412.5" y="-391.5" fill="#000000" stroke="#FFFFFF" stroke-miterlimit="10" width="30" height="30"/>
	<rect x="-369.5" y="-391.5" fill="#000000" stroke="#FFFFFF" stroke-miterlimit="10" width="30" height="30"/>
	<rect x="-325.5" y="-391.5" fill="#000000" stroke="#FFFFFF" stroke-miterlimit="10" width="30" height="30"/>
</g>
<g id="Your_Icon">
	<g>
		<path d="M-214.235-257.068c-7.937,0.391-10.328,7.407-10.275,14.361c0.033,4.454,1.437,7.103,3.406,10.993    c3.362,6.641,6.725,13.28,10.087,19.92c0.396,0.78,0.791,1.562,1.186,2.342c0.368,0.725-0.249-0.917,0.088,0.328    c0.789,2.909-0.413,5.153-3.282,6.138c-2.672,0.917-6.11,0.537-8.922,0.537c-3.786,0-7.572,0-11.358,0    c-2.909,0-6.984,0.325-8.714-2.472c-0.456-0.736-0.42-1.85-0.281-2.666c0.113-0.663,0.591-1.726,0.169-0.841    c2.674-5.613,5.348-11.228,8.022-16.842c1.791-3.76,5.305-8.561,5.882-12.759c1.088-7.928-0.24-18.552-10.155-19.04    c-3.385-0.167-3.369,5.084,0,5.25c4.42,0.218,5.101,4.724,5.247,8.335c0.053,1.319-0.033,2.646-0.155,3.959    c-0.115,1.232,0.47-0.616-0.073,0.522c-2.883,6.055-5.767,12.108-8.65,18.162c-1.745,3.664-4.25,7.515-5.268,11.48    c-1.648,6.425,2.796,10.904,8.885,11.901c6.252,1.024,13.096,0.259,19.402,0.259c6.006,0,13.175-1.184,14.54-8.123    c0.731-3.716-0.714-6.525-2.317-9.693c-3.383-6.68-6.766-13.36-10.148-20.04c-0.665-1.313-1.33-2.627-1.995-3.939    c-0.486-0.961,0.007,0.567-0.176-1.046c-0.463-4.103-0.729-11.502,4.857-11.777C-210.866-251.984-210.85-257.235-214.235-257.068    L-214.235-257.068z"/>
	</g>
	<g>
		<path d="M-80.4-377.272c-4.85,0-9.699,0-14.549,0c-3.572,0-6.97,0.09-10.159,1.986c-6.396,3.801-2.308,12.815-0.518,18.048    c2.086,6.101,4.849,11.901,7.187,17.893c2.137,5.476,10.312,5.968,14.95,4.027c4.445-1.858,5.771-7.811,7.412-11.897    c2.651-6.605,7.088-15.621,6.172-22.913C-70.534-375.129-75.944-377.221-80.4-377.272c-3.387-0.04-3.383,5.211,0,5.25    c1.115,0.013,2.161,0.256,3.225,0.582c3.276,1.002,1.87,4.753,1.305,7.157c-1.342,5.711-3.497,11.259-5.679,16.694    c-1.082,2.697-2.019,6.913-5.052,7.822c-4.818,1.443-6.932-1.385-8.563-5.135c-2.317-5.328-4.433-10.752-6.252-16.271    c-0.725-2.199-2.724-6.527-1.732-8.793c0.703-1.606,3.44-1.95,4.968-2.046c5.882-0.37,11.887-0.01,17.781-0.01    C-77.015-372.022-77.015-377.272-80.4-377.272z"/>
	</g>
	<g>
		<path d="M-83.436-392.875c-0.451,8.378-12.55,8.378-13.001,0C-96.889-401.26-83.885-401.216-83.436-392.875    c0.182,3.367,5.433,3.385,5.25,0c-0.357-6.644-5.106-11.392-11.75-11.75c-6.63-0.357-11.422,5.643-11.751,11.75    c-0.357,6.629,5.646,11.419,11.751,11.748c6.628,0.357,11.421-5.643,11.75-11.748C-78.003-396.26-83.254-396.242-83.436-392.875z"/>
	</g>
	<g>
		<path d="M-87.853-336.022c0,2.873,0,5.746,0,8.619c0,3.386,5.25,3.386,5.25,0c0-2.873,0-5.746,0-8.619    C-82.603-339.408-87.853-339.408-87.853-336.022L-87.853-336.022z"/>
	</g>
	<g>
		<path d="M-95.658-336.022c0,2.873,0,5.746,0,8.619c0,3.386,5.25,3.386,5.25,0c0-2.873,0-5.746,0-8.619    C-90.408-339.408-95.658-339.408-95.658-336.022L-95.658-336.022z"/>
	</g>
	<g>
		<path d="M-220.801-392.875c-0.451,8.377-12.551,8.378-13.002,0C-234.254-401.261-221.25-401.215-220.801-392.875    c0.182,3.367,5.433,3.385,5.25,0c-0.358-6.644-5.108-11.392-11.752-11.75c-6.629-0.357-11.421,5.644-11.75,11.75    c-0.357,6.628,5.645,11.419,11.75,11.748c6.628,0.357,11.423-5.643,11.752-11.748    C-215.368-396.26-220.619-396.242-220.801-392.875z"/>
	</g>
	<g>
		<path d="M-235.168-334.274c4.849,0,9.698,0,14.547,0c3.573,0,6.97-0.091,10.16-1.986c6.396-3.801,2.31-12.814,0.52-18.049    c-2.087-6.101-4.851-11.901-7.188-17.892c-2.137-5.476-10.312-5.967-14.95-4.028c-4.445,1.858-5.771,7.811-7.412,11.897    c-2.651,6.607-7.084,15.621-6.17,22.915C-245.035-336.418-239.623-334.326-235.168-334.274c3.387,0.04,3.383-5.21,0-5.25    c-1.115-0.013-2.161-0.256-3.225-0.582c-3.275-1.002-1.868-4.754-1.304-7.157c1.342-5.712,3.497-11.261,5.678-16.695    c1.083-2.697,2.018-6.913,5.052-7.821c4.818-1.444,6.931,1.384,8.562,5.134c2.318,5.329,4.434,10.752,6.254,16.272    c0.725,2.199,2.724,6.526,1.731,8.794c-0.704,1.606-3.442,1.95-4.97,2.046c-5.881,0.37-11.885,0.01-17.779,0.01    C-238.554-339.524-238.554-334.274-235.168-334.274z"/>
	</g>
	<g>
		<path d="M-225.218-336.022c0,2.873,0,5.746,0,8.619c0,3.386,5.25,3.386,5.25,0c0-2.873,0-5.746,0-8.619    C-219.968-339.408-225.218-339.408-225.218-336.022L-225.218-336.022z"/>
	</g>
	<g>
		<path d="M-233.023-336.022c0,2.873,0,5.746,0,8.619c0,3.386,5.25,3.386,5.25,0c0-2.873,0-5.746,0-8.619    C-227.773-339.408-233.023-339.408-233.023-336.022L-233.023-336.022z"/>
	</g>
	<path d="M74.977-238.048c-3.688-4.948-7.376-9.896-11.063-14.843c-0.843-1.13-1.957-3.449-3.417-3.852   c-1.89-0.52-4.348-0.258-6.269-0.258c-5.683,0-11.364,0-17.047,0C23.19-256,26-239.923,26-230.413c0,7.033,0,14.067,0,21.102   c0,5.978,1.705,11.313,8.125,12.691c4.209,0.903,9.014,0.239,13.253,0.239c5.392,0,10.761,0.192,16.149-0.009   c6.475-0.241,12.117-4.488,12.119-11.342c0.002-6.236-0.011-12.474-0.009-18.71C75.639-229.341,76.874-235.503,74.977-238.048z    M68.436-238.596C66.29-238.89,64-239.183,62-239.477c0-2.584,0-5.168,0-7.752C64-244.352,66.29-241.474,68.436-238.596z    M70.366-207.916C70.364-201.531,63.627-202,59.121-202c-6.955,0-13.909,0-20.863,0C33.28-202,31-203.438,31-208.896   c0-6.848,0-13.694,0-20.542c0-5.424-0.746-11.047,0.018-16.443c0.439-3.121,3.089-5.119,6.163-5.119c6.534,0,13.069,0,19.604,0   c-0.25,0-0.784,0.427-0.784,1c0,4.264,0,8.527,0,12.791c0,1.05,0.979,2.376,2.114,2.531c3.433,0.47,6.959,0.939,10.392,1.409   c0.682,0.094,1.324-0.056,1.821-0.342c0,2.39,0.022,4.688,0.021,7.077C70.347-220.297,70.368-214.152,70.366-207.916z"/>
	<path d="M-65.382-217.014c0.002-6.238,0.005-12.478,0.007-18.717c0.002-4.259-0.266-8.761-1.281-12.903   c-1.221-4.979-7.415-5.663-11.659-5.897c-7.411-0.409-14.929-0.023-22.351-0.023c-13.973,0.275-10.875,18.523-10.875,27.74   c0,8.857-3.447,28.521,10.771,27.709c5.849-0.334,11.808-0.006,17.665-0.006c4.678,0,9.256,0.422,13.421-2.165   C-64.326-204.604-65.384-211.643-65.382-217.014z M-73.057-205.36c-3.754,2.332-10.763,0.999-14.778,0.999   c-4.718,0-9.893,0.726-14.571-0.079c-5.427-0.935-3.594-10.771-3.594-14.74c0-7.204,0-14.408,0-21.611   c0-3.918,0.454-8.208,5.334-8.208c6.202,0,12.404,0,18.606,0c1.842,0,3.668-0.159,5.507-0.005c2.042,0.171,4.479,0.393,5.024,2.621   c0.588,2.396,0.636,4.94,0.775,7.395c0.29,5.099,0.125,10.21,0.123,15.313C-70.631-219.307-68.61-208.122-73.057-205.36z"/>
	<g>
		<path d="M-97.812-236.506c5.882,0,11.764,0,17.646,0c3.386,0,3.386-5.25,0-5.25c-5.882,0-11.764,0-17.646,0    C-101.197-241.756-101.197-236.506-97.812-236.506L-97.812-236.506z"/>
	</g>
	<g>
		<path d="M-80.461-220.49c0.197,0,0.396,0,0.593,0c1.431,0,2.625-1.194,2.625-2.625s-1.194-2.625-2.625-2.625    c-0.197,0-0.396,0-0.593,0c-1.431,0-2.625,1.194-2.625,2.625S-81.892-220.49-80.461-220.49L-80.461-220.49z"/>
	</g>
	<g>
		<path d="M-88.767-220.49c0.197,0,0.396,0,0.593,0c1.431,0,2.625-1.194,2.625-2.625s-1.194-2.625-2.625-2.625    c-0.197,0-0.396,0-0.593,0c-1.431,0-2.625,1.194-2.625,2.625S-90.197-220.49-88.767-220.49L-88.767-220.49z"/>
	</g>
	<g>
		<path d="M-97-220.49c0.197,0,0.396,0,0.593,0c1.431,0,2.625-1.194,2.625-2.625s-1.194-2.625-2.625-2.625c-0.197,0-0.396,0-0.593,0    c-1.431,0-2.625,1.194-2.625,2.625S-98.431-220.49-97-220.49L-97-220.49z"/>
	</g>
	<g>
		<path d="M-80.461-211c0.197,0,0.396,0,0.593,0c1.431,0,2.625-1.194,2.625-2.625s-1.194-2.625-2.625-2.625    c-0.197,0-0.396,0-0.593,0c-1.431,0-2.625,1.194-2.625,2.625S-81.892-211-80.461-211L-80.461-211z"/>
	</g>
	<g>
		<path d="M-88.767-211c0.197,0,0.396,0,0.593,0c1.431,0,2.625-1.194,2.625-2.625s-1.194-2.625-2.625-2.625    c-0.197,0-0.396,0-0.593,0c-1.431,0-2.625,1.194-2.625,2.625S-90.197-211-88.767-211L-88.767-211z"/>
	</g>
	<g>
		<path d="M-97-211c0.197,0,0.396,0,0.593,0c1.431,0,2.625-1.194,2.625-2.625s-1.194-2.625-2.625-2.625c-0.197,0-0.396,0-0.593,0    c-1.431,0-2.625,1.194-2.625,2.625S-98.431-211-97-211L-97-211z"/>
	</g>
	<g>
		<path d="M340.677-106.786c-11.166,11.167-22.332,22.334-33.498,33.5c-2.396,2.396,1.316,6.108,3.713,3.713    c11.166-11.167,22.332-22.334,33.498-33.5C346.785-105.47,343.073-109.182,340.677-106.786z"/>
		<path d="M319.345-95.475c0.182-0.119,0.36-0.26,0.529-0.443c0.182-0.167,0.321-0.343,0.439-0.522    c2.646-3.325,2.501-7.834-0.441-11.025c-3.098-3.359-8.393-2.916-11.549,0c-3.355,3.101-2.915,8.388,0,11.548    C311.258-92.738,316.148-92.974,319.345-95.475z M312.036-103.753c2.558-2.772,6.668,1.363,4.125,4.122    C313.39-97.079,309.479-100.983,312.036-103.753z"/>
		<path d="M344.296-70.079c2.65-3.325,2.508-7.838-0.439-11.03c-3.1-3.355-8.388-2.914-11.547,0c-3.356,3.098-2.915,8.391,0,11.548    c2.936,3.179,7.828,2.947,11.023,0.441c0.181-0.118,0.357-0.258,0.525-0.44C344.038-69.727,344.178-69.901,344.296-70.079z     M336.022-77.396c2.557-2.771,6.67,1.364,4.123,4.123C337.377-70.719,333.467-74.628,336.022-77.396z"/>
	</g>
	<path d="M178.371-249.248c-0.744-3.034-1.37-6.067-2.114-9.102c-0.63-2.565-4.313-2.451-5.004,0   c-1.529,5.43-3.026,10.857-4.556,16.286c-0.029,0.111,0.153,0.229,0.138,0.35c-0.033,0.194,0.165,0.382,0.165,0.561   c0,14.742,0,29.484,0,44.227c0,0.919,0.312,1.808,1.111,2.267c1.468,0.841,2.842,1.682,4.309,2.522   c0.816,0.469,1.549,0.477,2.366,0c1.755-1.023,5.214-2.26,5.214-4.743c0-1.662,0-3.323,0-4.985c0-8.189,0-16.378,0-24.567   c0-4.965,0-9.931,0-14.896C180-243.879,178.971-246.804,178.371-249.248z M174.162-245.339c-0.353,0.001-0.705,0.002-1.058,0.003   c0.188-0.67,0.377-1.34,0.565-2.01C173.834-246.677,173.998-246.008,174.162-245.339z M172-198.448c0-13.878,0-27.756,0-41.634   c1-0.004,2-0.007,3-0.01c0,0.318,0,0.637,0,0.955c0,2.726,0,5.451,0,8.177c0,10.866,0,21.733,0,32.6   c0,0.308-0.881,0.615-1.41,0.924C173.002-197.774,172-198.111,172-198.448z"/>
	<path d="M204-261c-5.257,0-10.515,0-15.771,0c-0.772,0-1.36,0.469-1.78,0.891c-0.025,0.021-0.048,0.14-0.073,0.162   c-0.022,0.025,0.151,0.095,0.13,0.12c-0.422,0.42-0.505,1.055-0.505,1.827c0,21.025,0,42.05,0,63.075   c0,1.431,0.798,2.925,2.229,2.925c5.257,0,10.515,0,15.771,0c1.431,0,3-1.494,3-2.925c0-21.025,0-42.05,0-63.075   C207-259.431,205.431-261,204-261z M191-255c3,0,7,0,10,0c0,2,0,4,0,7c-1,0-3,0-4,0c-4,0-4,5,0,5c1,0,3,0,4,0c0,3,0,5,0,8   c-1,0-3,0-4,0c-4,0-4,5,0,5c1,0,3,0,4,0c0,3,0,5,0,8c-1,0-3,0-4,0c-4,0-4,5,0,5c1,0,3,0,4,0c0,3,0,5,0,8c-1,0-3,0-4,0c-4,0-4,5,0,5   c1,0,3,0,4,0c0,2,0,4,0,6c-3,0-7,0-10,0C191-217,191-236,191-255z"/>
	<path d="M-206.387-78.152c0.01-6.988,0.78-14.379-3.327-20.475c-4.19-6.22-12.705-9.049-20.524-8.296   c-0.215-3.578-1.711-7.075-4.334-9.525c-2.5-2.337-11.962-3.574-7.366-8.695c2.254-2.512-1.446-6.237-3.712-3.713   c-3.14,3.499-3.484,8.522-0.436,12.144c2.424,2.879,6.846,2.273,9.063,5.342c1.023,1.416,1.551,3.375,1.576,5.118   c0.002,0.143,0.026,0.271,0.046,0.401c-2.58,0.853-4.773,2.161-6.66,3.943C-246.175-98.022-248-91.484-248-85.922   c0,5.486,0,10.974,0,16.46c0,8.204,5.151,14.488,12.552,17.255c11.6,4.335,26.381-0.889,28.791-13.863   C-205.931-69.982-206.392-74.216-206.387-78.152z M-211.782-88.879c-4.146,1.158-8.564,2.058-13.032,2.493   c-0.18-5.053-0.359-10.105-0.539-15.157c0.234,0.029,0.469,0.058,0.7,0.093C-217.393-100.342-212.673-95.887-211.782-88.879z    M-239.702-96.811c2.079-3.095,5.507-4.456,9.096-4.824c0.184,5.176,0.368,10.353,0.551,15.528   c-4.406,0.038-8.777-0.45-12.902-1.678C-242.636-90.998-241.489-94.151-239.702-96.811z M-211.646-70.646   c-0.013,10.412-8.506,15.905-18.657,14.36C-237.356-57.357-243-62.194-243-69.761c0-4.202,0-8.403,0-12.604   c10,2.679,21.461,1.519,31.455-1.135C-211.518-79.217-211.641-74.925-211.646-70.646z"/>
	<path d="M-52-68.979c0-11.354,0-22.706,0-34.059c0-3.246-3.309-4.798-5.746-6.49c-4.459-3.099-10.104-4.465-15.474-3.978   c-4.919,0.446-10.062,2.775-13.877,6.105c-7.315-5.596-16.164-8.079-25.15-4.312c-3.043,1.275-9.753,4.326-9.753,8.353   c0,11.678,0,23.355,0,35.033c0,2.23,3.085,3.556,4.669,1.856c8.098-8.69,19.935-7.38,28.42,0.021   c0.134,0.116,0.326,0.212,0.476,0.296c0.022,0.013,0.069,0.021,0.092,0.033c0.108,0.057,0.23,0.108,0.344,0.148   c0.064,0.024,0.137,0.042,0.203,0.061c0.068,0.02,0.14,0.038,0.21,0.052c0.105,0.022,0.214,0.037,0.321,0.048   c0.021,0.002,0.042,0.004,0.062,0.005c0.528,0.04,1.065-0.054,1.532-0.289c0.035-0.017,0.071-0.03,0.105-0.048   c0.004-0.002,0.007-0.004,0.011-0.006c0.385-0.2,0.712-0.483,0.942-0.832c8.075-8.118,19.516-6.719,27.829,0.532   c0.007,0.006,0.014,0.009,0.02,0.015c0.14,0.124,0.29,0.231,0.452,0.321c0.122,0.069,0.245,0.117,0.369,0.165   c0.019,0.007,0.036,0.018,0.056,0.024c0.152,0.055,0.306,0.091,0.46,0.115c0.005,0.001,0.01,0.002,0.015,0.003   c0.106,0.016,0.213,0.023,0.318,0.025c1.11,0.062,2.398-0.485,2.789-1.64C-52.068-67.904-52-68.447-52-68.979z M-109.242-77.166   c-2.443,0.64-4.758,1.792-6.758,3.259c0-8.271,0-16.543,0-24.813c0-1.359,0-2.719,0-4.078c0-0.541,0.8-1.053,1.437-1.524   c8.206-6.073,17.563-4.518,24.563,1.646c0,9.707,0,19.414,0,29.121C-95-77.338-102.011-79.062-109.242-77.166z M-77.248-77.166   C-79.691-76.526-82-75.374-84-73.907c0-9.633,0-19.267,0-28.899c3-3.124,7.556-5.148,12.015-5.553   c2.318-0.211,4.479,0.263,6.681,0.93c1.201,0.416,2.082,0.942,3.18,1.58c0.711,0.378,4.125,3.791,4.125,1.988   c0,1.485,0,2.971,0,4.456c0,8.617,0,17.235,0,25.854C-63-77.337-70.012-79.062-77.248-77.166z"/>
	<g>
		<path d="M23.019-376.429c0,11.567,0,23.134,0,34.7c0,3.386,5.25,3.386,5.25,0c0-11.566,0-23.133,0-34.7    C28.269-379.814,23.019-379.814,23.019-376.429L23.019-376.429z"/>
	</g>
	<g>
		<path d="M72.252-376.429c0,11.567,0,23.134,0,34.7c0,3.386,5.25,3.386,5.25,0c0-11.566,0-23.133,0-34.7    C77.502-379.814,72.252-379.814,72.252-376.429L72.252-376.429z"/>
	</g>
	<g>
		<path d="M80.848-366.264c-11.994-7.893-23.988-15.785-35.982-23.678c-2.838-1.867-5.465,2.681-2.65,4.533    c11.994,7.893,23.988,15.785,35.982,23.678C81.035-359.863,83.662-364.412,80.848-366.264L80.848-366.264z"/>
	</g>
	<g>
		<path d="M22.325-361.73c11.993-7.893,23.987-15.785,35.981-23.678c2.814-1.852,0.188-6.4-2.65-4.533    c-11.993,7.893-23.987,15.785-35.981,23.678C16.86-364.412,19.487-359.863,22.325-361.73L22.325-361.73z"/>
	</g>
	<g>
		<path d="M-77.144,43.235c-3.322-4.013-6.644-8.026-9.965-12.04c-0.619,1.494-1.237,2.987-1.856,4.481c0.038,0,0.077,0,0.115,0    c-0.619-1.494-1.237-2.987-1.856-4.481c-3.32,4.014-6.642,8.027-9.963,12.04c-2.141,2.587,1.552,6.323,3.713,3.713    c3.32-4.014,6.642-8.027,9.963-12.04c1.401-1.694,0.596-4.481-1.856-4.481c-0.038,0-0.077,0-0.115,0    c-2.451,0-3.259,2.787-1.856,4.481c3.322,4.013,6.644,8.026,9.965,12.04C-78.695,49.559-75.003,45.822-77.144,43.235    L-77.144,43.235z"/>
	</g>
	<g>
		<path d="M-91.59,33.755c0,9.082,0,18.163,0,27.245c0,3.386,5.25,3.386,5.25,0c0-9.082,0-18.163,0-27.245    C-86.34,30.369-91.59,30.369-91.59,33.755L-91.59,33.755z"/>
	</g>
	<g>
		<path d="M-239.665,50.814c3.32,4.013,6.641,8.026,9.962,12.04c0.619-1.494,1.237-2.987,1.856-4.481c-0.038,0-0.076,0-0.113,0    c0.619,1.494,1.237,2.987,1.856,4.481c3.32-4.014,6.64-8.027,9.96-12.04c2.14-2.588-1.553-6.323-3.713-3.713    c-3.319,4.014-6.64,8.027-9.959,12.04c-1.402,1.694-0.596,4.481,1.856,4.481c0.038,0,0.076,0,0.113,0    c2.452,0,3.258-2.787,1.856-4.481c-3.32-4.013-6.641-8.026-9.962-12.04C-238.113,44.491-241.805,48.227-239.665,50.814    L-239.665,50.814z"/>
	</g>
	<g>
		<path d="M-225.222,60.295c0-9.081,0-18.162,0-27.243c0-3.386-5.25-3.386-5.25,0c0,9.081,0,18.162,0,27.243    C-230.472,63.681-225.222,63.681-225.222,60.295L-225.222,60.295z"/>
	</g>
	<g>
		<path d="M34.304,36.96c7.947,7.947,15.894,15.896,23.84,23.844c2.396,2.396,6.108-1.316,3.713-3.713    c-7.947-7.947-15.894-15.896-23.84-23.844C35.62,30.852,31.908,34.563,34.304,36.96L34.304,36.96z"/>
	</g>
	<g>
		<path d="M58.144,33.247c-7.946,7.948-15.893,15.896-23.84,23.844c-2.396,2.396,1.316,6.108,3.713,3.713    c7.946-7.948,15.893-15.896,23.84-23.844C64.252,34.563,60.54,30.852,58.144,33.247L58.144,33.247z"/>
	</g>
	<path d="M365-367.884c0-4.608,0.887-9.51-1.511-13.656c-2.066-3.574-6.051-4.46-9.848-4.46c-5.715,0-11.429,0-17.144,0   c-6.452,0-12.904,0-19.356,0c-0.223-2.273-1.358-3.909-3.312-5.135c-1.419-0.89-2.745-0.838-4.352-0.838   c-2.83,0-5.533-0.255-7.584,2.029c-0.962,1.072-1.621,2.546-1.898,3.979c-5.867,0.355-10.492,4.853-10.551,11.103   c-0.078,8.355-0.145,16.892,0.001,25.246c0.246,14.081,17.12,11.616,26.362,11.616c8.785,0,17.57,0,26.355,0   c5.691,0,13.797,1.217,18.75-2.123c4.412-2.976,4.086-8.528,4.086-13.208C365-358.182,365-363.033,365-367.884z M308.033-387   c0.971,0,1.94,0,2.911,0c0.052,0,0.126,0.2,0.235,0.26c0.269,0.145,0.545,0.469,0.672,0.74c-2.111,0-4.222,0-6.332,0   C306.071-386.947,306.759-387,308.033-387z M360.147-348.58c-1.086,6.846-11.942,4.58-17.031,4.58c-14.087,0-28.174,0-42.261,0   c-8.652,0-6.24-14.604-6.224-20.5c0.015-5.483-2.061-15.5,6.11-16.5c11.919,0,23.837,0,35.756,0c5.715,0,11.429,0,17.144,0   c6.983,0,6.575,5.94,6.575,11.704C360.217-362.62,361.196-355.193,360.147-348.58z"/>
	<path d="M341.438-361.295c0.016-0.284-0.02-0.535-0.074-0.771c-0.744-7.52-6.276-12.836-13.944-13.25   c-7.912-0.426-13.625,6.733-14.018,14.02c-0.426,7.912,6.73,13.625,14.018,14.018c7.628,0.41,13.197-6.228,13.94-13.234   C341.418-360.751,341.454-361.006,341.438-361.295z M318.652-361.295c-0.609-11.311,16.93-11.25,17.536,0   C335.58-349.993,319.261-349.993,318.652-361.295z"/>
	<g>
		<path d="M213.88-107.862c-3.327-5.358-10.365-4.301-15.737-4.303c-6.238-0.002-12.478-0.004-18.717-0.006    c-4.259-0.001-8.76,0.264-12.903,1.279c-4.979,1.221-5.662,7.417-5.897,11.66c-0.41,7.41-0.023,14.93-0.023,22.351    c0.275,13.972,18.523,10.874,27.739,10.874c8.857,0,28.52,3.447,27.71-10.771c-0.333-5.849-0.006-11.807-0.006-17.664    C216.045-99.119,216.467-103.697,213.88-107.862z M174.363-71c-3.917,0-8.363-1.001-8.363-5.881c0-6.202,0-12.404,0-18.606    c0-1.842-0.081-3.668,0.073-5.507c0.172-2.042,0.432-4.479,2.66-5.025c2.396-0.588,5.106-0.636,7.561-0.774    c3.186-0.181,6.706-0.181,9.706-0.158C186-95.054,186-83,186-71C182-71,178.145-71,174.363-71z M210.715-74.867    C209.781-69.441,199.943-71,195.975-71c-1.672,0-2.975,0-4.975,0c0-12,0-24.032,0-35.92c0,0,0.315,0.003,0.483,0.003    c4.369,0.002,15.562-2.02,18.323,2.428c2.331,3.754,0.994,10.827,0.994,14.843C210.801-84.93,211.521-79.545,210.715-74.867z"/>
		<path d="M150.574-88.062c-0.811,0.98-1.574,1.961-2.574,2.941c0-3.486,0-6.879,0-10.879c0-2-3-2-3,0c0,4,0,7.443,0,10.954    c-1-1.006-1.773-2.011-2.605-3.017c-1.439-1.74-3.956,0.75-2.528,2.475c1.727,2.087,3.426,4.396,5.152,6.484    c0.261,0.506,0.728,1.104,1.453,1.104c0.021,0,0.04,0,0.061,0c0.726,0,1.22-0.598,1.48-1.104c1.726-2.088,3.381-4.285,5.106-6.372    C154.546-87.2,152.014-89.804,150.574-88.062z"/>
		<path d="M236.237-90.191c-1.725-2.084-3.45-4.004-5.175-6.088c-0.26-0.51-0.756-0.721-1.484-0.721c-0.021,0-0.042,0-0.062,0    c-0.729,0-1.225,0.211-1.483,0.721c-1.725,2.084-3.449,4.087-5.174,6.171c-1.427,1.725,1.152,4.174,2.592,2.433    c0.811-0.98,1.55-2.001,2.55-2.981c0,3.485,0,6.657,0,10.657c0,2,3,2,3,0c0-4,0-7.223,0-10.734c1,1.006,1.798,2.012,2.63,3.018    C235.07-85.977,237.665-88.467,236.237-90.191z"/>
	</g>
	<path d="M51.06-119.505c-17.486-0.416-31.164,14.698-31.565,31.562C19.078-70.455,34.195-56.776,51.06-56.375   c17.488,0.416,31.164-14.703,31.565-31.567C82.209-105.432,68.549-119.089,51.06-119.505z M71.902-72.119   c-2.566-3.519-4.191-7.464-4.86-11.528c3.44-0.434,6.833-0.987,10.145-1.641C76.603-80.332,74.729-75.834,71.902-72.119z    M77.175-90.632c-3.402,0.701-6.901,1.293-10.46,1.75c0.182-5.22,1.903-10.393,5.182-14.88   C74.708-99.973,76.577-95.438,77.175-90.632z M61.668-88.313C59.072-88.086,56-87.945,54-87.889c0-8.763,0-17.524,0-26.287   c5,0.469,10.585,2.865,14.558,6.469C64.096-101.843,61.748-95.085,61.668-88.313z M48-87.891c-2-0.065-4.623-0.221-7.02-0.467   c-0.092-6.855-2.536-13.693-7.115-19.602c4.004-3.279,9.135-5.462,14.135-6.104C48-105.34,48-96.615,48-87.891z M48-82.641   c0,6.979,0,13.958,0,20.937c-5-0.455-10.156-2.729-14.074-6.162c3.625-4.644,5.743-9.872,6.576-15.24   C43.021-82.854,46-82.703,48-82.641z M54-82.645c2-0.061,5.32-0.209,8.041-0.448c0.812,5.218,3.021,10.306,6.473,14.851   C64.549-64.772,59-62.466,54-61.811C54-68.755,54-75.7,54-82.645z M30.459-104.237c3.467,4.542,5.306,9.83,5.528,15.175   c-3.687-0.609-7.306-1.452-10.799-2.596c-0.083-0.027-0.158-0.033-0.239-0.053C25.57-96.436,27.555-100.71,30.459-104.237z    M24.842-86.281c3.521,1.092,7.148,1.913,10.844,2.498c-0.679,4.263-2.407,8.394-5.168,12.046   C27.339-75.869,25.3-80.93,24.842-86.281z"/>
	<path d="M353.019-251.699c-0.031-0.172-0.098-0.347-0.174-0.531c-0.004-0.009-0.019-0.019-0.022-0.028   c-0.287-0.697-0.78-1.157-1.341-1.431c0.047-0.037,0.093-0.073,0.14-0.109c-13.854-5.898-28.904-7.723-43.43-3.193   c-2.557,0.797-5.384,1.804-7.703,3.165c-1.868,1.097-1.488,4.164-1.488,5.969c0,16.646,0,33.294,0,49.941   c0,1.59,1.887,3.141,3.511,2.531c14.784-5.548,32.264-5.256,46.99,0.027c1.073,0.385,2.021,0.044,2.577-0.617   c0.499-0.423,0.922-1.06,0.922-1.914c0-9.106,0-18.212,0-27.318c0-6.284,0-12.569,0-18.854   C353-246.11,353.605-249.499,353.019-251.699z M305-201.58c0-16.146,0-32.292,0-48.438c13-6.849,29.856-5.043,42.985,0.202   c0.021,0.204,0.015,0.394,0.015,0.535c0,1.981,0,3.964,0,5.945c0,6.043,0,12.086,0,18.128c0,7.899,0,15.798,0,23.697   C334-205.65,318-205.862,305-201.58z"/>
	<g>
		<path d="M315.55-236.72c6.655-2.792,14.212-2.689,20.85,0c3.14,1.271,4.491-3.809,1.396-5.062c-7.365-2.983-16.243-3.104-23.643,0    C311.08-240.493,312.429-235.41,315.55-236.72L315.55-236.72z"/>
	</g>
	<g>
		<path d="M315.55-225.48c6.655-2.792,14.212-2.688,20.85,0c3.14,1.271,4.491-3.809,1.396-5.062c-7.365-2.983-16.243-3.104-23.643,0    C311.08-229.254,312.429-224.172,315.55-225.48L315.55-225.48z"/>
	</g>
	<g>
		<path d="M315.55-214.074c6.655-2.791,14.212-2.688,20.85,0c3.141,1.271,4.491-3.809,1.396-5.062    c-7.365-2.982-16.243-3.103-23.643,0C311.08-217.848,312.429-212.766,315.55-214.074L315.55-214.074z"/>
	</g>
	<path d="M228.83-358.525c-3.213-4.5-9.194-5.921-12.782-1.951c-3.054-1.435-6.106-2.87-9.159-4.306   c2.595-1.22,5.189-2.44,7.784-3.66c1.129,0.311,2.29,0.528,3.448,0.665c4.182,0.494,7.795-0.207,10.313-3.77   c1.642-2.322,1.669-6.313-0.4-8.394c-1.361-1.369-2.854-2.049-4.723-2.506c-0.158-0.039-0.278-0.047-0.377-0.041   c-0.178-0.991-0.251-2.014-0.408-3.008c-1.34-8.493-14.187-8.271-15.015,0.275c-0.07,0.729-0.058,1.382,0.035,2.021   c-6.64,3.121-13.279,6.242-19.919,9.363c-6.202-2.915-12.404-5.83-18.606-8.746c0.795-7.23-9.565-12.392-13.913-5.361   c-0.834,1.349-1.053,3.119-1.249,4.654c-0.062,0.493-0.127,0.982-0.2,1.471c-0.019-0.279-0.365,0.015-1.544,0.303   c-3.376,0.825-5.663,4.322-4.999,7.718c0.673,3.438,3.024,5.75,6.381,6.602c1.814,0.46,3.875,0.271,5.697-0.035   c0.874-0.147,1.729-0.318,2.589-0.529c0.062-0.015,0.111-0.027,0.166-0.041c2.14,1.006,4.279,2.012,6.418,3.019   c-2.6,1.222-5.198,2.444-7.798,3.666c-3.587-3.971-9.569-2.548-12.78,1.951c-0.293,0.41-0.428,0.814-0.462,1.202   c-1.017,3.379,1.197,6.207,3.457,8.645c0.968,1.044-1.104,2.918-0.959,4.753c0.177,2.227,0.807,3.857,2.53,5.335   c2.821,2.416,6.961,2.09,9.817,0.033c1.539-1.107,2.653-2.693,3.681-4.259c0.482-0.735,0.872-1.535,1.26-2.322   c0.076-0.154,0.146-0.282,0.211-0.399c6.768-3.183,13.535-6.365,20.304-9.547c7.245,3.406,14.491,6.813,21.735,10.221   c0.572,1.24,1.229,2.426,1.981,3.572c2.389,3.641,5.575,5.418,9.89,4.816c3.398-0.475,6.061-4.184,5.464-7.508   c-0.48-2.674-1.96-2.875-0.202-4.77c1.427-1.539,2.609-3.242,3.027-5.32c0.186-0.92,0.05-1.779-0.232-2.629   C229.253-357.723,229.118-358.121,228.83-358.525z M215.156-368.668C215.962-369.036,215.727-368.81,215.156-368.668   L215.156-368.668z M163.557-372.823c-1.407-0.662-2.5-0.163-3.905,0.182c-1.456,0.356-2.897,0.448-4.389,0.417   c-2.018-0.042-4.652-3.009-1.752-4.229c2.472-1.041,4.096-0.21,5.082-3.178c0.394-1.181,0.366-2.604,0.56-3.829   c0.663-4.194,5.758-2.021,4.256,1.621c-0.413,1.003,0.245,2.513,1.206,2.964c5.622,2.643,11.244,5.286,16.866,7.929   c-2.322,1.092-4.645,2.183-6.967,3.275C170.861-369.388,167.209-371.106,163.557-372.823z M165.615-351.153   c-2.93,1.378-3.081,3.198-4.875,5.932c-0.792,1.207-6.385,4.838-5.538,0.128c0.271-1.506,2.286-2.794,1.617-4.579   c-0.824-2.2-4.767-4.615-4.354-7.026c1.61-2.095,3.707-2.172,4.926,0.227c0.689,1.355,2.358,1.521,3.592,0.941   c17.007-7.995,34.014-15.989,51.021-23.984c0.961-0.452,1.619-1.961,1.206-2.964c-1.234-2.995,3.007-6.088,4.072-2.483   c0.386,1.304,0.436,2.739,0.622,4.083c0.258,1.855,1.401,3.236,3.303,3.438c2.104,0.224,3.852,1.026,2.695,3.244   c-1.03,1.975-4.311,1.394-6.061,1.099c-1.626-0.274-3.108-1.151-4.715-0.396c-6.993,3.289-13.987,6.577-20.981,9.866   C183.302-359.47,174.459-355.312,165.615-351.153z M167.417-346.34C167.913-347.161,168.018-346.836,167.417-346.34L167.417-346.34   z M219.883-347.291c0.394,1.004,0.904,1.949,1.532,2.838c1.58,3.762-3.926,1.645-4.574,1.037c-2.66-2.492-2.315-5.441-5.504-6.939   c-5.854-2.754-11.709-5.507-17.563-8.26c2.084-0.979,4.168-1.96,6.252-2.939c0.239-0.112,0.478-0.225,0.717-0.337   c4.964,2.334,9.928,4.667,14.892,7.001c1.233,0.58,2.901,0.414,3.592-0.941c1.222-2.402,3.325-2.322,4.937-0.217   c0.464,2.453-3.391,4.418-4.201,6.582C219.675-348.705,219.688-348.076,219.883-347.291z"/>
	<g>
		<path d="M663.581-374.375c9.249-1.248,10.879,5.441,10.879,5.441s5.117-18.836,19.823-17.5    c24.398,2.218,16.697,20.997,16.697,20.997s5.216,0.118,6.017,5.262c0.337,2.195-0.169,7.972-7.182,7.97h-47.012    C652.146-352.207,649.752-372.508,663.581-374.375z"/>
		<g>
			<path d="M663.581-371.375c2.818-0.262,7.063-0.162,7.986,3.239c0.781,2.88,4.989,2.851,5.785,0     c0.853-3.055,2.35-5.904,4.095-8.535c4.533-6.834,11.285-7.682,18.783-5.643c7.554,2.054,10.689,9.006,7.857,16.078     c-0.768,1.916,1.135,3.702,2.893,3.798c5.137,0.278,3.277,6.964-1.165,7.231c-1.575,0.095-3.186,0-4.763,0     c-8.376,0-16.751,0-25.127,0c-5.671,0-11.342,0-17.013,0c-3.707,0-5.554-3.713-5.88-6.954c-0.504-5.013,2.554-8.479,7.346-9.321     c3.806-0.67,2.188-6.451-1.596-5.786c-11.755,2.068-16.205,18.153-6.6,25.746c2.747,2.172,5.844,2.315,9.155,2.315     c5.184,0,10.368,0,15.552,0c9.605,0,19.21,0,28.815,0c12.562,0,13.963-18.544,1.274-19.231c0.964,1.266,1.929,2.531,2.893,3.798     c3.985-9.952-1.296-19.478-10.935-23.102c-14.849-5.582-27.379,3.711-31.371,18.01c1.929,0,3.856,0,5.785,0     c-1.648-6.079-8.122-8.169-13.771-7.643C659.763-377.02,659.728-371.017,663.581-371.375z"/>
		</g>
	</g>
	<g>
		<path d="M341.453,49.471c-0.322,8.384-6.553,14.615-14.937,14.938c-8.378,0.322-14.635-7.042-14.938-14.938    c-0.322-8.376,7.044-14.633,14.938-14.937C334.893,34.212,341.149,41.576,341.453,49.471c0.13,3.374,5.381,3.387,5.25,0    c-0.436-11.298-8.889-19.752-20.187-20.187c-11.288-0.435-19.778,9.541-20.188,20.187c-0.435,11.29,9.542,19.778,20.188,20.188    c11.29,0.435,19.776-9.542,20.187-20.188C346.834,46.084,341.583,46.097,341.453,49.471z"/>
	</g>
	<g>
		<path d="M329.142,21.872c0-2.624,0-5.248,0-7.872c0-3.386-5.25-3.386-5.25,0c0,2.624,0,5.248,0,7.872    C323.892,25.258,329.142,25.258,329.142,21.872L329.142,21.872z"/>
	</g>
	<g>
		<path d="M329.142,84.966c0-2.624,0-5.247,0-7.871c0-3.386-5.25-3.386-5.25,0c0,2.624,0,5.247,0,7.871    C323.892,88.352,329.142,88.352,329.142,84.966L329.142,84.966z"/>
	</g>
	<g>
		<path d="M298.906,46.859c-2.625,0-5.249,0-7.874,0c-3.386,0-3.386,5.25,0,5.25c2.625,0,5.249,0,7.874,0    C302.292,52.109,302.292,46.859,298.906,46.859L298.906,46.859z"/>
	</g>
	<g>
		<path d="M362,46.859c-2.624,0-5.247,0-7.871,0c-3.386,0-3.386,5.25,0,5.25c2.624,0,5.247,0,7.871,0    C365.386,52.109,365.386,46.859,362,46.859L362,46.859z"/>
	</g>
	<g>
		<path d="M348.121,31.594c1.855-1.856,3.711-3.713,5.566-5.568c2.396-2.396-1.317-6.109-3.713-3.713    c-1.855,1.856-3.711,3.713-5.566,5.568C342.013,30.277,345.726,33.99,348.121,31.594L348.121,31.594z"/>
	</g>
	<g>
		<path d="M303.061,76.653c1.854-1.855,3.709-3.711,5.564-5.565c2.396-2.396-1.316-6.108-3.713-3.713    c-1.854,1.855-3.709,3.711-5.564,5.565C296.952,75.337,300.664,79.049,303.061,76.653L303.061,76.653z"/>
	</g>
	<g>
		<path d="M308.626,27.881c-1.855-1.855-3.711-3.712-5.565-5.568c-2.396-2.396-6.107,1.316-3.713,3.713    c1.855,1.855,3.711,3.712,5.565,5.568C307.309,33.99,311.021,30.277,308.626,27.881L308.626,27.881z"/>
	</g>
	<g>
		<path d="M353.688,72.94c-1.855-1.854-3.71-3.71-5.564-5.565c-2.396-2.396-6.108,1.316-3.713,3.713    c1.855,1.854,3.71,3.71,5.564,5.565C352.371,79.049,356.083,75.337,353.688,72.94L353.688,72.94z"/>
	</g>
	<g>
		<path d="M450.105-390.22c0-3.075,0-6.149,0-9.225c0-3.386-5.25-3.386-5.25,0c0,3.075,0,6.149,0,9.225    C444.855-386.834,450.105-386.834,450.105-390.22L450.105-390.22z"/>
	</g>
	<g>
		<path d="M416.016-361.384c-3.074,0-6.149,0-9.224,0c-3.386,0-3.386,5.25,0,5.25c3.074,0,6.149,0,9.224,0    C419.401-356.134,419.401-361.384,416.016-361.384L416.016-361.384z"/>
	</g>
	<g>
		<path d="M471.808-379.371c2.174-2.176,4.348-4.351,6.522-6.525c2.396-2.396-1.317-6.109-3.713-3.713    c-2.174,2.176-4.348,4.351-6.522,6.525C465.699-380.688,469.412-376.975,471.808-379.371L471.808-379.371z"/>
	</g>
	<g>
		<path d="M425.566-383.086c-2.175-2.174-4.35-4.349-6.523-6.523c-2.396-2.396-6.108,1.316-3.713,3.713    c2.175,2.174,4.35,4.349,6.523,6.523C424.25-376.978,427.962-380.689,425.566-383.086L425.566-383.086z"/>
	</g>
	<path d="M467.033-371.264c-6.354-9.094-18.083-13.5-28.592-8.86c-10.339,4.564-15.24,14.83-13.732,25.775   c0.295,2.144,3.077,2.269,4.388,1.158c1.477-1.252,2.987-1.775,4.813-2.152c2.977-0.221,7.014,0.118,7.944,3.545   c0.685,2.52,4.366,2.495,5.062,0c2.284-8.181,8.518-16.498,17.85-15.516C466.694-367.11,468.114-369.716,467.033-371.264z    M443.643-358.074c-2.743-2.113-6.611-2.814-10.137-2.486c-0.1,0.01-0.188,0.036-0.281,0.055c-0.137,0.007-0.272,0.011-0.417,0.039   c-1.152,0.225-2.2,0.534-3.188,0.94c0.799-14.694,18.609-22.2,29.599-12.736C452.142-370.714,446.724-364.812,443.643-358.074z"/>
	<path d="M484.247-350.831c2.12-8.771-2.864-16.834-11.483-20.076c-12.885-4.846-23.955,1.62-29.121,12.849   c-2.744-2.112-6.612-2.822-10.137-2.494c-0.123,0.012-0.232,0.039-0.347,0.063c-0.116,0.006-0.229,0.002-0.352,0.023   c-11.493,2.022-15.826,17.765-6.434,25.189c2.661,2.104,5.687,2.275,8.89,2.275c5.184,0,10.368,0,15.552,0   c9.605,0,19.211,0,28.816,0C490.459-333,492.702-347.396,484.247-350.831z M479.741-338.196c-1.575,0.095-3.186,0.196-4.763,0.196   c-8.376,0-16.752,0-25.128,0c-5.671,0-11.342,0-17.013,0c-3.932,0-5.907-4.079-6.254-7.525c-0.51-5.065,2.561-8.764,7.339-9.721   c2.976-0.219,7.002,0.075,7.932,3.497c0.685,2.52,4.366,2.471,5.062-0.024c0.861-3.085,2.37-5.98,4.132-8.637   c4.629-6.978,11.539-7.908,19.207-5.822c7.73,2.104,11.025,9.277,8.119,16.537c-0.671,1.677,0.992,3.337,2.531,3.42   C486.534-345.972,484.678-338.493,479.741-338.196z"/>
	<g>
		<path d="M545.429-371.376c2.819-0.263,7.065-0.164,7.988,3.238c0.781,2.88,4.989,2.851,5.785,0    c0.853-3.055,2.35-5.905,4.095-8.536c4.534-6.834,11.287-7.68,18.784-5.642c7.553,2.054,10.687,9.005,7.855,16.076    c-0.768,1.916,1.134,3.702,2.893,3.798c5.137,0.278,3.28,6.966-1.163,7.234c-1.575,0.095-3.186,0-4.763,0    c-8.376,0-16.752,0-25.128,0c-5.671,0-11.342,0-17.013,0c-3.707,0-5.555-3.713-5.881-6.954c-0.505-5.014,2.553-8.479,7.345-9.322    c3.806-0.67,2.188-6.451-1.596-5.786c-11.756,2.068-16.203,18.154-6.598,25.747c2.747,2.172,5.844,2.315,9.155,2.315    c5.184,0,10.368,0,15.552,0c9.605,0,19.211,0,28.816,0c12.563,0,13.961-18.547,1.272-19.234c0.964,1.266,1.929,2.531,2.893,3.798    c3.984-9.951-1.294-19.477-10.934-23.1c-14.849-5.581-27.379,3.71-31.371,18.01c1.929,0,3.856,0,5.785,0    c-1.649-6.08-8.123-8.169-13.773-7.643C541.61-377.02,541.575-371.017,545.429-371.376z"/>
	</g>
	<g>
		<path d="M543.861-373.272c4.244-0.396,9.601,0.574,10.896,5.353c0.098,0.36,0.623,0.356,0.723,0    c0.941-3.376,2.581-6.576,4.513-9.482c5.354-8.054,13.415-9.533,22.394-7.13c9.175,2.454,13.669,11.27,10.159,20.032    c-0.096,0.239,0.142,0.463,0.361,0.475c7.323,0.375,7.776,10.495,1.254,12.659c-2.04,0.676-5.032,0.281-7.139,0.281    c-8.69,0-17.38,0-26.069,0c-5.955,0-11.911,0-17.866,0c-5.423,0-8.266-5.165-8.73-9.946c-0.612-6.285,3.547-11.201,9.604-12.253    c0.476-0.083,0.273-0.806-0.199-0.724c-6.644,1.155-10.409,6.326-10.155,12.977c0.205,5.4,3.842,10.421,9.453,10.696    c12.337,0.604,24.85,0,37.2,0c4.109,0,8.827,0.657,12.906-0.09c4.956-0.907,9.195-7.47,4.91-11.893    c-1.105-1.141-4.324-3.19-4.797-2.008c0.514-1.284,0.794-2.666,1.002-4.027c0.752-4.942-0.656-9.719-4.363-13.131    c-4.242-3.905-12.212-5.845-17.806-4.962c-5.843,0.922-10.065,4.601-13.261,9.408c-1.279,1.925-2.272,4.039-3.142,6.175    c-0.286,0.704-0.536,1.421-0.771,2.143c-0.289,0.886,0.501,0.463,0.471,0.365c-1.55-4.97-7.008-6.091-11.549-5.668    C543.384-373.978,543.38-373.228,543.861-373.272z"/>
	</g>
	<g>
		<defs>
			<path id="SVGID_1_" d="M544.667-373.647c9.572-1.293,11.256,5.628,11.256,5.628s5.298-19.491,20.515-18.108     c25.244,2.294,17.276,21.727,17.276,21.727s5.398,0.12,6.224,5.445c0.354,2.272-0.175,8.247-7.43,8.245h-48.645     C532.838-350.711,530.356-371.715,544.667-373.647z"/>
		</defs>
		<clipPath id="SVGID_2_">
			<use xlink:href="#SVGID_1_" overflow="visible"/>
		</clipPath>
		<g clip-path="url(#SVGID_2_)">
			<path d="M530.058-348.254c8.812-14.376,17.624-28.752,26.437-43.128c0.828-1.351-1.291-2.581-2.115-1.236     c-8.812,14.376-17.625,28.752-26.437,43.128C527.114-348.14,529.233-346.909,530.058-348.254L530.058-348.254z"/>
		</g>
		<g clip-path="url(#SVGID_2_)">
			<path d="M537.652-348.254c8.812-14.376,17.623-28.752,26.435-43.128c0.828-1.351-1.291-2.581-2.115-1.236     c-8.812,14.376-17.623,28.752-26.435,43.128C534.709-348.14,536.828-346.909,537.652-348.254L537.652-348.254z"/>
		</g>
		<g clip-path="url(#SVGID_2_)">
			<path d="M545.248-348.254c8.812-14.376,17.625-28.752,26.437-43.128c0.828-1.351-1.291-2.581-2.115-1.236     c-8.812,14.376-17.624,28.752-26.437,43.128C542.305-348.14,544.424-346.909,545.248-348.254L545.248-348.254z"/>
		</g>
		<g clip-path="url(#SVGID_2_)">
			<path d="M552.842-348.254c8.812-14.376,17.625-28.752,26.438-43.128c0.828-1.351-1.291-2.581-2.115-1.236     c-8.812,14.376-17.625,28.752-26.438,43.128C549.898-348.14,552.018-346.909,552.842-348.254L552.842-348.254z"/>
		</g>
		<g clip-path="url(#SVGID_2_)">
			<path d="M560.437-348.254c8.812-14.376,17.624-28.752,26.436-43.128c0.828-1.351-1.291-2.581-2.115-1.236     c-8.812,14.376-17.624,28.752-26.436,43.128C557.493-348.14,559.612-346.909,560.437-348.254L560.437-348.254z"/>
		</g>
		<g clip-path="url(#SVGID_2_)">
			<path d="M568.03-348.254c8.812-14.376,17.625-28.752,26.438-43.128c0.828-1.351-1.291-2.581-2.115-1.236     c-8.812,14.376-17.625,28.752-26.438,43.128C565.087-348.14,567.206-346.909,568.03-348.254L568.03-348.254z"/>
		</g>
		<g clip-path="url(#SVGID_2_)">
			<path d="M575.628-348.254c8.812-14.376,17.622-28.752,26.434-43.128c0.828-1.351-1.291-2.581-2.115-1.236     c-8.812,14.376-17.622,28.752-26.434,43.128C572.685-348.14,574.804-346.909,575.628-348.254L575.628-348.254z"/>
		</g>
		<g clip-path="url(#SVGID_2_)">
			<path d="M583.222-348.254c8.812-14.376,17.623-28.752,26.435-43.128c0.828-1.351-1.291-2.581-2.115-1.236     c-8.812,14.376-17.623,28.752-26.435,43.128C580.278-348.14,582.397-346.909,583.222-348.254L583.222-348.254z"/>
		</g>
		<g clip-path="url(#SVGID_2_)">
			<path d="M590.815-348.254c8.813-14.376,17.626-28.752,26.438-43.128c0.828-1.351-1.291-2.581-2.115-1.236     c-8.812,14.376-17.626,28.752-26.438,43.128C587.872-348.14,589.991-346.909,590.815-348.254L590.815-348.254z"/>
		</g>
		<g clip-path="url(#SVGID_2_)">
			<path d="M598.408-348.254c8.812-14.376,17.626-28.752,26.438-43.128c0.828-1.351-1.291-2.581-2.115-1.236     c-8.813,14.376-17.626,28.752-26.438,43.128C595.465-348.14,597.584-346.909,598.408-348.254L598.408-348.254z"/>
		</g>
	</g>
	<g>
		<path d="M785.601-371.375c2.818-0.262,7.063-0.162,7.986,3.239c0.781,2.88,4.989,2.851,5.785,0    c0.853-3.055,2.35-5.904,4.095-8.535c4.533-6.834,11.285-7.682,18.783-5.643c7.554,2.054,10.689,9.006,7.857,16.078    c-0.768,1.916,1.135,3.703,2.893,3.798c5.137,0.277,3.277,6.963-1.165,7.23c-1.575,0.095-3.186,0-4.763,0    c-8.376,0-16.751,0-25.127,0c-5.671,0-11.342,0-17.012,0c-3.707,0-5.555-3.712-5.881-6.954c-0.504-5.013,2.555-8.478,7.346-9.32    c3.806-0.67,2.188-6.451-1.596-5.786c-11.755,2.068-16.205,18.152-6.6,25.745c2.747,2.172,5.844,2.315,9.155,2.315    c5.184,0,10.368,0,15.552,0c9.605,0,19.21,0,28.814,0c12.562,0,13.964-18.545,1.275-19.23c0.964,1.266,1.929,2.531,2.893,3.798    c3.985-9.952-1.296-19.478-10.935-23.102c-14.849-5.582-27.379,3.711-31.371,18.01c1.929,0,3.856,0,5.785,0    c-1.648-6.079-8.122-8.169-13.771-7.643C781.782-377.02,781.747-371.017,785.601-371.375z"/>
	</g>
	<g>
		<path d="M912.267-329.084c2.269-3.698,4.536-7.396,6.805-11.094c1.775-2.895-2.767-5.53-4.533-2.65    c-2.269,3.698-4.536,7.396-6.805,11.094C905.958-328.84,910.5-326.204,912.267-329.084L912.267-329.084z"/>
	</g>
	<g>
		<path d="M923.071-329.084c2.269-3.698,4.536-7.396,6.805-11.094c1.775-2.895-2.767-5.53-4.533-2.65    c-2.269,3.698-4.536,7.396-6.805,11.094C916.763-328.84,921.305-326.204,923.071-329.084L923.071-329.084z"/>
	</g>
	<g>
		<path d="M933.267-329.084c2.269-3.698,4.536-7.396,6.805-11.094c1.775-2.895-2.767-5.53-4.533-2.65    c-2.269,3.698-4.536,7.396-6.805,11.094C926.958-328.84,931.5-326.204,933.267-329.084L933.267-329.084z"/>
	</g>
	<g>
		<path d="M903.581-371.375c2.818-0.262,7.063-0.162,7.986,3.239c0.781,2.88,4.989,2.851,5.785,0    c0.853-3.055,2.35-5.904,4.095-8.535c4.533-6.834,11.285-7.682,18.783-5.643c7.554,2.054,10.689,9.006,7.857,16.078    c-0.768,1.916,1.135,3.703,2.893,3.798c5.137,0.277,3.277,6.963-1.165,7.23c-1.575,0.095-3.186,0-4.763,0    c-8.376,0-16.751,0-25.127,0c-5.671,0-11.342,0-17.012,0c-3.707,0-5.555-3.712-5.881-6.954c-0.504-5.013,2.555-8.478,7.346-9.32    c3.806-0.67,2.188-6.451-1.596-5.786c-11.755,2.068-16.205,18.152-6.6,25.745c2.747,2.172,5.844,2.315,9.155,2.315    c5.184,0,10.368,0,15.552,0c9.605,0,19.21,0,28.814,0c12.562,0,13.964-18.545,1.275-19.23c0.964,1.266,1.929,2.531,2.893,3.798    c3.985-9.952-1.296-19.478-10.935-23.102c-14.849-5.582-27.379,3.711-31.371,18.01c1.929,0,3.856,0,5.785,0    c-1.648-6.079-8.122-8.169-13.771-7.643C899.763-377.02,899.728-371.017,903.581-371.375z"/>
	</g>
	<g>
		<path d="M197.733,37.675c-4.946,7-9.894,14-14.84,20.999c0.756-0.433,1.511-0.866,2.267-1.3c1.729-0.011,2.049,1.119,0.405-0.524    c-1.209-1.209-2.418-2.419-3.627-3.628c-1.641-1.641-3.281-3.282-4.922-4.923c-2.396-2.396-6.108,1.316-3.713,3.713    c2.851,2.85,5.7,5.7,8.55,8.55c2.061,2.061,4.05,2.919,6.01,0.146c4.801-6.794,9.603-13.588,14.403-20.382    C204.226,37.553,199.67,34.935,197.733,37.675L197.733,37.675z"/>
	</g>
</g>
</svg>