<svg xmlns:x="http://ns.adobe.com/Extensibility/1.0/" xmlns:i="http://ns.adobe.com/AdobeIllustrator/10.0/" xmlns:graph="http://ns.adobe.com/Graphs/1.0/" xmlns="http://www.w3.org/2000/svg" xmlns:xlink="http://www.w3.org/1999/xlink" version="1.1" x="0px" y="0px" width="100px" height="100px" viewBox="0 0 100 100" enable-background="new 0 0 100 100" xml:space="preserve">
<metadata>
	<sfw xmlns="http://ns.adobe.com/SaveForWeb/1.0/">
		<slices/>
		<sliceSourceBounds y="-8242" x="-8141" width="16383" height="16383" bottomLeftOrigin="true"/>
		<optimizationSettings/>
	</sfw>
</metadata>
<g id="Captions" display="none">
	<rect x="-744" display="inline" width="185" height="99"/>
	<rect x="-552" y="-36" display="inline" width="100" height="30"/>
	<text transform="matrix(1 0 0 1 -486 -19.5)" display="inline" fill="#000000" font-family="'Helvetica'" font-size="2.4">http://thenounproject.com</text>
	<text transform="matrix(1 0 0 1 -544.834 -24.5)" display="inline"><tspan x="0" y="0" fill="#000000" font-family="'Helvetica-Bold'" font-size="6.1578">The Noun Project</tspan><tspan x="1.12" y="4.8" fill="#000000" font-family="'Helvetica-Bold'" font-size="4">Icon Template</tspan></text>
	
		<text transform="matrix(1 0 0 1 -730.5 10.5)" display="inline" fill="#000000" font-family="'Helvetica-Bold'" font-size="6.1578">Reminders</text>
	<line display="inline" fill="#000000" stroke="#FFFFFF" stroke-miterlimit="10" x1="-544" y1="-14.5" x2="-534" y2="-14.5"/>
	<line display="inline" fill="#000000" stroke="#FFFFFF" stroke-miterlimit="10" x1="-731" y1="16.5" x2="-714" y2="16.5"/>
	<g display="inline">
		<g>
			<g>
				<rect x="-722.802" y="31.318" fill="#000000" width="8.721" height="8.642"/>
				<path fill="#000000" d="M-716.455,42.312h4.747v-4.703h-4.747V42.312z M-711.266,42.749h-5.63V37.17h5.63V42.749      L-711.266,42.749z M-718.221,44.062h8.279v-8.203h-8.279V44.062L-718.221,44.062z M-709.5,44.5h-9.163v-9.079h9.163V44.5      L-709.5,44.5z"/>
				<polygon fill="#000000" points="-718.149,44.133 -718.292,43.991 -710.013,35.787 -709.871,35.929     "/>
			</g>
		</g>
	</g>
	<rect x="-731" y="58" display="inline" fill="none" width="35" height="32.5"/>
	<text transform="matrix(1 0 0 1 -731 60.1572)" display="inline"><tspan x="0" y="0" fill="#000000" font-family="'Helvetica-Bold'" font-size="3">Strokes</tspan><tspan x="0" y="5" fill="#000000" font-family="'Helvetica'" font-size="2.4">Try to keep strokes at 4px</tspan><tspan x="0" y="10" fill="#000000" font-family="'Helvetica'" font-size="2.4">Minimum stroke weight is 2px</tspan><tspan x="0" y="14.5" fill="#000000" font-family="'Helvetica'" font-size="2.4">For thicker strokes use even </tspan><tspan x="0" y="17.5" fill="#000000" font-family="'Helvetica'" font-size="2.4">numbers: 6px, 8px etc.</tspan><tspan x="0" y="22" fill="#000000" font-family="'Helvetica-Bold'" font-size="2.4">Remember to expand strokes </tspan><tspan x="0" y="25" fill="#000000" font-family="'Helvetica-Bold'" font-size="2.4">before saving as an SVG </tspan></text>
	<rect x="-688.5" y="58" display="inline" fill="none" width="35" height="32.5"/>
	<text transform="matrix(1 0 0 1 -688.5 60.1572)" display="inline"><tspan x="0" y="0" fill="#000000" font-family="'Helvetica-Bold'" font-size="3">Size</tspan><tspan x="0" y="5" fill="#000000" font-family="'Helvetica'" font-size="2.4">Cannot be wider or taller than </tspan><tspan x="0" y="8.5" fill="#000000" font-family="'Helvetica'" font-size="2.4">100px (artboar size)</tspan><tspan x="0" y="13.5" fill="#000000" font-family="'Helvetica'" font-size="2.4">Scale your icon to fill as much of </tspan><tspan x="0" y="16.5" fill="#000000" font-family="'Helvetica'" font-size="2.4">the Safe Area as possible (within </tspan><tspan x="0" y="19.5" fill="#000000" font-family="'Helvetica'" font-size="2.4">the guides)</tspan></text>
	<rect x="-646" y="58" display="inline" fill="none" width="35" height="32.5"/>
	<text transform="matrix(1 0 0 1 -646 60.1572)" display="inline"><tspan x="0" y="0" fill="#000000" font-family="'Helvetica-Bold'" font-size="3">Ungroup</tspan><tspan x="0" y="5" fill="#000000" font-family="'Helvetica'" font-size="2.4">If your design has more than one </tspan><tspan x="0" y="8" fill="#000000" font-family="'Helvetica'" font-size="2.4">shape, make sure to ungroup.</tspan></text>
	<rect x="-602" y="58" display="inline" fill="none" width="35" height="32.5"/>
	<text transform="matrix(1 0 0 1 -602 60.1572)" display="inline"><tspan x="0" y="0" fill="#000000" font-family="'Helvetica-Bold'" font-size="3">Save as</tspan><tspan x="0" y="5" fill="#000000" font-family="'Helvetica'" font-size="2.4">Save as .SVG and make sure </tspan><tspan x="0" y="8" fill="#000000" font-family="'Helvetica'" font-size="2.4">&#8220;Use Artboards&#8221; is checked.</tspan></text>
	
		<text transform="matrix(1.0074 0 0 1 -677.542 30.5933)" display="inline" fill="#000000" font-family="'Helvetica'" font-size="2.5731">100px</text>
	
		<text transform="matrix(1.0074 0 0 1 -593 39)" display="inline" fill="#000000" font-family="'Helvetica-Bold'" font-size="5.1462">.SVG</text>
	<rect x="-678.514" y="34.815" display="inline" fill="#000000" width="10.261" height="10.185"/>
	<rect x="-678.477" y="31.766" display="inline" fill="#000000" width="0.522" height="2.337"/>
	<rect x="-668.812" y="31.766" display="inline" fill="#000000" width="0.523" height="2.337"/>
	<rect x="-679" y="32.337" display="inline" fill="#000000" width="11.233" height="0.572"/>
	<g display="inline">
		<rect x="-635.805" y="33.844" fill="#000000" width="10.305" height="10.156"/>
		<rect x="-628.809" y="28.707" fill="#000000" width="3.308" height="3.261"/>
	</g>
	<rect x="-730.5" y="22.5" display="inline" fill="#000000" stroke="#FFFFFF" stroke-miterlimit="10" width="30" height="30"/>
	<rect x="-688.5" y="22.5" display="inline" fill="#000000" stroke="#FFFFFF" stroke-miterlimit="10" width="30" height="30"/>
	<rect x="-645.5" y="22.5" display="inline" fill="#000000" stroke="#FFFFFF" stroke-miterlimit="10" width="30" height="30"/>
	<rect x="-601.5" y="22.5" display="inline" fill="#000000" stroke="#FFFFFF" stroke-miterlimit="10" width="30" height="30"/>
</g>
<g id="Your_Icon">
	<g>
		<rect x="-507" y="31" fill="#000000" width="9" height="25"/>
		<g>
			<rect x="-515" y="39" fill="#000000" width="25" height="9"/>
		</g>
	</g>
	<path fill="#000000" d="M-502.474,14.575c-15.698,0-28.425,12.726-28.425,28.425c0,15.699,12.727,28.425,28.425,28.425   c15.7,0,28.426-12.727,28.426-28.425C-474.048,27.301-486.773,14.575-502.474,14.575z M-502.474,63.95   c-11.569,0-20.948-9.379-20.948-20.95c0-11.57,9.379-20.949,20.948-20.949c11.571,0,20.949,9.379,20.949,20.949   C-481.524,54.571-490.902,63.95-502.474,63.95z"/>
	<path fill="#000000" d="M-515.789,67.8c6.104,9.592,13.314,18.213,13.314,18.213s7.216-8.621,13.317-18.213H-515.789z"/>
	<g>
		<g>
			<path fill="#000000" d="M-329,67.183c0,3.765-3.053,6.817-6.817,6.817h-56.365c-3.765,0-6.817-3.053-6.817-6.817V37.817     c0-3.765,3.053-6.817,6.817-6.817h56.365c3.765,0,6.817,3.052,6.817,6.817V67.183z M-332,37.903c0-2.708-2.195-4.903-4.903-4.903     h-56.193c-2.708,0-4.903,2.195-4.903,4.903v29.193c0,2.708,2.195,4.903,4.903,4.903h56.193c2.708,0,4.903-2.195,4.903-4.903     V37.903z"/>
			<path fill="#000000" d="M-328,67.213c0,4.301-3.487,7.787-7.788,7.787h-56.424c-4.301,0-7.788-3.486-7.788-7.787V37.787     c0-4.301,3.487-7.787,7.788-7.787h56.424c4.301,0,7.788,3.486,7.788,7.787V67.213z M-336.432,73h0.026     c3.225,0,5.405-2.563,5.405-5.787v-0.025C-331,70.426-333.192,73-336.432,73z M-392.609,32c-3.225,0-5.391,2.943-5.391,6.167     v29.046c0,3.224,2.166,5.787,5.391,5.787h0.026c-3.239,0-5.417-2.574-5.417-5.812V38.193c0-3.238,2.178-6.193,5.417-6.193h56.151     c3.239,0,5.432,2.955,5.432,6.193v-0.027c0-3.223-2.181-6.167-5.405-6.167H-392.609z M-332,37.933     c0-2.172-1.762-3.933-3.935-3.933h-56.131c-2.173,0-3.935,1.761-3.935,3.933v29.133c0,2.173,1.762,3.934,3.935,3.934h56.131     c2.173,0,3.935-1.761,3.935-3.934V37.933z"/>
		</g>
	</g>
	<g>
		<g>
			<path fill="#000000" d="M-398,47v20.238c0,3.337,2.796,5.762,6.132,5.762h58.132c3.336,0,5.736-2.425,5.736-5.762V47H-398z      M-358,66h-38v-3h38V66z M-347.093,51.024l3.055,6.191l6.833,0.992l-4.944,4.819l1.167,6.805l-6.11-3.213l-6.112,3.213     l1.168-6.805l-4.944-4.819l6.833-0.992L-347.093,51.024z"/>
		</g>
	</g>
	<g>
		<g>
			<path fill="#000000" d="M-386.936,39.343c-0.059-0.231-0.143-0.444-0.246-0.639c-0.105-0.194-0.241-0.362-0.405-0.505     c-0.164-0.142-0.356-0.251-0.578-0.331c-0.219-0.078-0.477-0.118-0.767-0.118c-0.428,0-0.796,0.086-1.106,0.258     c-0.311,0.173-0.562,0.403-0.758,0.69c-0.193,0.289-0.338,0.615-0.432,0.982c-0.095,0.367-0.14,0.74-0.14,1.123     c0,0.382,0.045,0.756,0.14,1.123c0.094,0.366,0.238,0.693,0.432,0.981c0.195,0.289,0.447,0.519,0.758,0.69     c0.311,0.172,0.679,0.259,1.106,0.259c0.312,0,0.589-0.055,0.829-0.164c0.239-0.108,0.445-0.258,0.617-0.449     s0.308-0.414,0.405-0.668c0.095-0.254,0.16-0.527,0.189-0.82h1.369c-0.029,0.479-0.133,0.917-0.309,1.314     c-0.176,0.396-0.413,0.739-0.712,1.026c-0.3,0.289-0.651,0.51-1.055,0.667c-0.405,0.158-0.851,0.236-1.335,0.236     c-0.6,0-1.136-0.111-1.611-0.332s-0.877-0.522-1.207-0.903c-0.329-0.382-0.582-0.827-0.757-1.335     c-0.176-0.509-0.265-1.052-0.265-1.627c0-0.569,0.089-1.106,0.265-1.615c0.175-0.509,0.428-0.955,0.757-1.335     c0.33-0.383,0.731-0.685,1.207-0.91c0.476-0.224,1.012-0.336,1.611-0.336c0.447,0,0.87,0.061,1.267,0.185     c0.397,0.123,0.746,0.303,1.049,0.539c0.304,0.235,0.549,0.522,0.735,0.858c0.187,0.336,0.303,0.722,0.35,1.155H-386.936z"/>
		</g>
		<g>
			<path fill="#000000" d="M-382.099,36.797h1.491l3.087,8.012h-1.505l-0.751-2.121h-3.197l-0.753,2.121h-1.447L-382.099,36.797z      M-382.592,41.621h2.444l-1.201-3.443h-0.032L-382.592,41.621z"/>
		</g>
		<g>
			<path fill="#000000" d="M-376.758,36.797h3.826c0.883,0,1.545,0.19,1.986,0.572s0.663,0.914,0.663,1.594     c0,0.381-0.058,0.698-0.169,0.948c-0.111,0.251-0.244,0.452-0.393,0.606c-0.149,0.154-0.297,0.265-0.443,0.332     s-0.253,0.111-0.319,0.135v0.021c0.119,0.016,0.247,0.053,0.388,0.113c0.138,0.06,0.267,0.155,0.386,0.286     c0.12,0.131,0.219,0.301,0.299,0.511c0.078,0.209,0.117,0.471,0.117,0.785c0,0.471,0.035,0.899,0.106,1.285     c0.07,0.385,0.181,0.661,0.331,0.825h-1.504c-0.105-0.172-0.167-0.364-0.185-0.573c-0.02-0.209-0.028-0.411-0.028-0.606     c0-0.367-0.022-0.683-0.066-0.948c-0.046-0.266-0.128-0.486-0.249-0.662c-0.119-0.176-0.282-0.305-0.487-0.387     s-0.47-0.124-0.791-0.124h-2.065v3.3h-1.402V36.797z M-375.355,40.444h2.302c0.448,0,0.788-0.107,1.021-0.321     c0.232-0.213,0.349-0.532,0.349-0.959c0-0.254-0.038-0.462-0.113-0.622c-0.074-0.162-0.177-0.287-0.309-0.377     c-0.131-0.09-0.28-0.149-0.448-0.179c-0.168-0.03-0.343-0.045-0.522-0.045h-2.278V40.444z"/>
		</g>
		<g>
			<path fill="#000000" d="M-368.857,36.797h3.321c0.613,0,1.145,0.104,1.594,0.314c0.448,0.209,0.815,0.496,1.099,0.858     c0.286,0.363,0.497,0.788,0.635,1.275c0.14,0.485,0.209,1.006,0.209,1.559c0,0.554-0.069,1.074-0.209,1.56     c-0.138,0.486-0.349,0.91-0.635,1.273c-0.283,0.364-0.65,0.649-1.099,0.858c-0.449,0.209-0.98,0.315-1.594,0.315h-3.321V36.797z      M-367.455,43.665h1.381c0.546,0,0.992-0.074,1.34-0.219c0.35-0.146,0.621-0.348,0.821-0.605c0.196-0.259,0.331-0.562,0.402-0.91     s0.106-0.724,0.106-1.127s-0.035-0.78-0.106-1.127c-0.071-0.348-0.206-0.651-0.402-0.909c-0.2-0.258-0.472-0.46-0.821-0.606     c-0.348-0.146-0.794-0.218-1.34-0.218h-1.381V43.665z"/>
		</g>
	</g>
	<path fill="#000000" d="M-223.51,17.665c-0.909-0.62-2.408-0.638-3.332-0.041l-30.568,19.767c-0.924,0.597-1.221,1.86-0.66,2.807   l0.051,0.085c0.561,0.946,1.02,2.621,1.02,3.721V82c0,1.1,0.9,2,2,2h18c1.1,0,2-0.9,2-2V60c0-1.1,0.9-2,2-2h13c1.1,0,2,0.9,2,2v22   c0,1.1,0.9,2,2,2h19c1.1,0,2-0.9,2-2V44.676c0-1.1,0.389-2.812,0.864-3.804l0.283-0.592c0.476-0.992,0.121-2.311-0.788-2.931   L-223.51,17.665z"/>
	<path fill="#000000" d="M-65,36.426L-62.481,28L-54,37.613C-57.675,37.896-65,36.426-65,36.426z"/>
	<rect x="-117.418" y="54.258" fill="#000000" width="4.46" height="6.022"/>
	<g>
		<g>
			<path fill="#000000" d="M50,85c-19.3,0-35-15.701-35-35c0-19.299,15.7-35,35-35c19.299,0,35,15.701,35,35     C85,69.299,69.299,85,50,85z M50,21.604c-15.658,0-28.396,12.738-28.396,28.396c0,15.658,12.738,28.396,28.396,28.396     c15.657,0,28.396-12.738,28.396-28.396C78.396,34.342,65.657,21.604,50,21.604z"/>
		</g>
		<g>
			<g>
				<path fill="#000000" d="M41.602,66.292c0.154-0.68,0.384-1.582,0.692-2.703l4.15-15.159c0.045-0.176,0.082-0.352,0.115-0.528      c0.033-0.175,0.05-0.34,0.05-0.494c0-0.9-0.285-1.46-0.855-1.681c-0.571-0.219-1.613-0.362-3.127-0.428v-1.78      c1.266-0.088,3.104-0.269,5.514-0.544c2.411-0.274,4.118-0.511,5.121-0.708l2.88-0.561l-5.24,19.214      c-0.439,1.647-0.735,2.79-0.89,3.428c-0.395,1.626-0.594,2.681-0.594,3.163c0,0.484,0.11,0.797,0.331,0.939      c0.219,0.144,0.461,0.215,0.726,0.215c0.683,0,1.53-0.582,2.543-1.747c1.014-1.164,1.906-2.384,2.677-3.658l1.483,0.956      c-2.2,3.229-3.884,5.404-5.051,6.525c-1.914,1.846-3.959,2.769-6.137,2.769c-1.232,0-2.338-0.378-3.316-1.138      c-0.979-0.757-1.468-1.916-1.468-3.477C41.206,68.347,41.338,67.479,41.602,66.292z M57.475,27.963      c0.879,0.879,1.319,1.945,1.319,3.197c0,1.252-0.44,2.324-1.319,3.213c-0.879,0.89-1.944,1.335-3.197,1.335      c-1.252,0-2.323-0.445-3.213-1.335c-0.89-0.89-1.335-1.961-1.335-3.213c0-1.252,0.445-2.317,1.335-3.197      c0.89-0.878,1.961-1.318,3.213-1.318C55.53,26.645,56.596,27.084,57.475,27.963z"/>
			</g>
		</g>
	</g>
	<g>
		<path fill="#000000" d="M-495.63,169.562c0.071-2.527,0.354-5.067,0.856-7.408c0.077-0.362,0.168-0.168,0.256-1.154h-38.063    c-4.52,0-4.419,3.774-4.419,7.991v5.728c0,4.218-0.1,7.281,4.419,7.281h38.258C-495.291,178-495.744,173.621-495.63,169.562z"/>
		<path fill="#000000" d="M-518.552,192h-15.203c-3.839,0-3.245,2.517-3.245,6.076v4.832c0,3.559-0.594,6.092,3.245,6.092h15.357    C-519.088,202.2-519.006,196.533-518.552,192z"/>
		<path fill="#000000" d="M-467,174.719v-5.728c0-4.217-1.416-7.991-6.558-7.991h-18.718c-0.141,0.986-0.271,0.949-0.392,1.438    c-1.453,5.961-1.221,12.562,0.598,19.562h18.512C-468.416,182-467,178.937-467,174.719z M-473.808,171.774    c0-4.755,1.443-8.61,2.441-8.61c0.027,0,0.055,0.014,0.082,0.02c-0.697,1.433-0.562,5.269-0.55,8.591    c0.015,3.852-0.147,7.157,0.55,8.59c-0.027,0.007-0.055,0.021-0.082,0.021C-472.364,180.385-473.808,176.529-473.808,171.774z"/>
		<path fill="#000000" d="M-467.352,212.902L-468,200.812v-0.637l0.648-12.092h-3.688c0,0-38.085,3.149-43.814,3.149    c0,0-1.444-0.245-2.136,1.229l0.99,7.902V201l-0.99,7.524c0.692,1.475,2.136,1.229,2.136,1.229c5.729,0,43.814,3.149,43.814,3.149    H-467.352z M-471.711,210.589v-20.495c0-0.344,0.436-0.622,0.972-0.622c0.537,0,0.974,0.278,0.974,0.622v20.495    c0,0.345-0.437,0.623-0.974,0.623C-471.275,211.212-471.711,210.934-471.711,210.589z"/>
	</g>
	<path fill="#000000" d="M-340.926,173.111l2.658-8.62l8.613,9.937C-333.427,174.685-340.926,173.111-340.926,173.111z"/>
	<g>
		<path fill="#000000" d="M-214.824,180.064c-1.24,0.595-1.771,2.091-1.172,3.332c0.599,1.244,2.084,1.771,3.332,1.175    c1.24-0.595,1.771-2.088,1.168-3.332C-212.087,179.999-213.576,179.469-214.824,180.064z"/>
		
			<rect x="-234.257" y="179.36" transform="matrix(-0.4318 -0.9019 0.9019 -0.4318 -496.7505 65.2142)" fill="#000000" width="12.842" height="19.405"/>
		<path fill="#000000" d="M-200.414,176.793c-3.332-6.304-9.953-10.605-17.58-10.605c-4.28,0-8.24,1.353-11.482,3.653    c-2.463-2.269-5.751-3.653-9.365-3.653c-6.516,0-11.979,4.508-13.447,10.573c-5.506,0.897-9.711,5.68-9.711,11.442    c0,6.404,5.193,11.594,11.598,11.594c0.812,0,1.598-0.083,2.361-0.242c1.699,7.137,8.107,12.445,15.763,12.445    c5.139,0,9.715-2.395,12.687-6.127c0.526,0.04,1.061,0.068,1.598,0.068c5.503,0,10.483-2.239,14.082-5.853    c0.465,0.058,0.934,0.087,1.414,0.087c6.509,0,11.784-5.276,11.784-11.785C-190.714,182.596-194.9,177.781-200.414,176.793z     M-210.58,193.064l-25.859,12.376l-9.549-19.949l25.863-12.376l9.975,4.32l2.924,6.112L-210.58,193.064z"/>
	</g>
	<g>
		<path fill="#000000" d="M-53.763,181.88c0.775-0.781,0.52-1.554-0.568-1.717l-20.795-3.124c-1.088-0.163-2.365-1.109-2.839-2.102    l-9.35-19.579c-0.474-0.992-1.249-0.992-1.723,0l-9.347,19.579c-0.474,0.992-1.751,1.938-2.839,2.102l-20.798,3.124    c-1.088,0.163-1.344,0.936-0.568,1.717l15.094,15.212c0.775,0.781,1.262,2.308,1.082,3.393l-3.576,21.543    c-0.18,1.085,0.464,1.543,1.43,1.018l18.627-10.125c0.966-0.525,2.548-0.525,3.514,0l18.627,10.125    c0.966,0.525,1.609,0.067,1.43-1.018l-3.576-21.543c-0.18-1.085,0.307-2.611,1.082-3.393L-53.763,181.88z M-75,192    c0,1.1-0.9,2-2,2h-6c-1.1,0-2,0.9-2,2v6c0,1.1-0.9,2-2,2h-3c-1.1,0-2-0.9-2-2v-6c0-1.1-0.9-2-2-2h-5c-1.1,0-2-0.9-2-2v-2    c0-1.1,0.9-2,2-2h5c1.1,0,2-0.9,2-2v-6c0-1.1,0.9-2,2-2h3c1.1,0,2,0.9,2,2v6c0,1.1,0.9,2,2,2h6c1.1,0,2,0.9,2,2V192z"/>
	</g>
	<g>
		<polygon fill="#000000" points="33,167 79,167 79,163 74,163 74,160 69,160 69,157 20,157 20,218 24,218 24,162 26,162 26,223     30,223 30,165 33,165   "/>
		<path fill="#000000" d="M33,182v45h49v-45H33z M53.944,214.404c-0.485,1.07-1.157,1.966-2.015,2.687    c-0.858,0.722-1.86,1.257-3.004,1.604c-1.145,0.348-2.376,0.522-3.694,0.522c-1.095,0-2.227-0.1-3.396-0.299    s-2.114-0.484-2.836-0.858l1.307-4.029c0.646,0.323,1.361,0.585,2.146,0.783c0.783,0.199,1.66,0.299,2.63,0.299    c1.542,0,2.718-0.41,3.526-1.231c0.808-0.821,1.213-1.815,1.213-2.985c0-1.418-0.424-2.34-1.269-3.012    C47.706,207.213,46.375,207,44.56,207H42v-2.819l4.451-6.157l2.097-1.52L45.567,197H40v-4h14v2.226l-5.311,7.052L47,203.285v0.187    l1.393-0.224c0.869,0.074,1.609,0.273,2.394,0.597c0.783,0.323,1.423,0.79,2.007,1.399s1.03,1.361,1.379,2.257    c0.348,0.896,0.511,1.929,0.511,3.098C54.683,212.066,54.43,213.335,53.944,214.404z M76,219H61v-4h6v-15.147l0.16-2.538    l-1.99,2.202l-3.421,2.275l-2.103-2.862l8.458-6.93H71v23h5V219z"/>
		<g>
			<path fill="#000000" d="M46.644,177.208c0-0.316-0.116-0.574-0.349-0.772s-0.525-0.379-0.876-0.542     c-0.352-0.163-0.733-0.332-1.144-0.505c-0.411-0.173-0.793-0.386-1.144-0.639c-0.352-0.252-0.645-0.566-0.877-0.943     c-0.232-0.376-0.349-0.855-0.349-1.44c0-0.505,0.084-0.943,0.252-1.314c0.169-0.371,0.409-0.681,0.721-0.928     c0.312-0.248,0.681-0.431,1.106-0.55s0.9-0.178,1.426-0.178c0.604,0,1.173,0.052,1.708,0.155     c0.534,0.104,0.975,0.255,1.321,0.453l-0.639,1.708c-0.218-0.139-0.544-0.265-0.979-0.379c-0.437-0.113-0.906-0.171-1.411-0.171     c-0.476,0-0.839,0.095-1.092,0.282c-0.252,0.188-0.379,0.441-0.379,0.758c0,0.297,0.116,0.545,0.35,0.742     c0.232,0.198,0.524,0.382,0.876,0.55s0.732,0.342,1.144,0.52c0.411,0.179,0.792,0.394,1.144,0.646     c0.352,0.252,0.644,0.564,0.876,0.936s0.35,0.834,0.35,1.389s-0.092,1.032-0.275,1.433c-0.183,0.401-0.44,0.735-0.771,1.003     c-0.332,0.268-0.733,0.466-1.203,0.594c-0.471,0.129-0.988,0.193-1.552,0.193c-0.743,0-1.396-0.069-1.961-0.208     s-0.98-0.277-1.247-0.416l0.653-1.737c0.108,0.06,0.25,0.124,0.423,0.193s0.369,0.133,0.587,0.192s0.447,0.109,0.69,0.148     c0.242,0.04,0.492,0.06,0.75,0.06c0.604,0,1.066-0.102,1.389-0.305C46.482,177.934,46.644,177.624,46.644,177.208z"/>
			<path fill="#000000" d="M53,169.604h6.164v1.812h-4.129v2.421h3.758v1.812h-3.758v2.54h4.203V180H53V169.604z"/>
			<path fill="#000000" d="M63.723,169.708c0.416-0.079,0.874-0.141,1.374-0.186s0.997-0.067,1.493-0.067     c0.515,0,1.032,0.043,1.552,0.127s0.987,0.252,1.403,0.505c0.416,0.252,0.755,0.604,1.018,1.055     c0.262,0.45,0.394,1.037,0.394,1.76c0,0.653-0.114,1.205-0.342,1.655c-0.228,0.451-0.53,0.819-0.906,1.106     s-0.805,0.495-1.284,0.624c-0.48,0.129-0.979,0.193-1.493,0.193c-0.049,0-0.129,0-0.237,0c-0.109,0-0.223-0.003-0.342-0.008     c-0.118-0.005-0.235-0.012-0.349-0.022c-0.114-0.01-0.195-0.02-0.245-0.029V180h-2.035V169.708z M66.753,171.208     c-0.198,0-0.387,0.008-0.564,0.022c-0.179,0.015-0.322,0.032-0.431,0.052v3.371c0.039,0.01,0.099,0.021,0.178,0.03     s0.164,0.017,0.253,0.021c0.089,0.006,0.176,0.008,0.26,0.008s0.146,0,0.186,0c0.268,0,0.532-0.024,0.795-0.074     c0.262-0.05,0.497-0.141,0.705-0.274s0.374-0.319,0.498-0.558c0.123-0.237,0.186-0.549,0.186-0.936     c0-0.326-0.06-0.596-0.179-0.81c-0.118-0.212-0.274-0.383-0.468-0.512c-0.192-0.129-0.413-0.218-0.661-0.268     C67.263,171.232,67.01,171.208,66.753,171.208z"/>
		</g>
	</g>
	<g>
	</g>
	<path fill="#000000" d="M-344.121,175.907l3.512-12.907h-55.952c-1.891,0-3.438,1.6-3.438,3.554v45.492   c0,1.954,1.548,3.954,3.438,3.954h65.318c1.893,0,3.243-2,3.243-3.954v-34.424C-334,178.026-344.121,175.907-344.121,175.907z    M-357,170h10v3h-10V170z M-357,176h8v3h-8V176z M-392,170h31v18h-31V170z M-377,209h-15v-3h15V209z M-377,203h-15v-3h15V203z    M-377,197h-15v-3h15V197z M-355,209h-18v-3h18V209z M-352,185h-5v-3h5V185z M-336,203h-37v-3h37V203z M-336,197h-37v-3h37V197z"/>
	<g>
		<rect x="-82" y="33" fill="#000000" width="6" height="6"/>
		<path fill="#000000" d="M-68.181,38.864L-65,26h-55.178c-1.864,0-3.822,1.849-3.822,3.776v44.861c0,1.928,1.958,3.362,3.822,3.362    h64.414C-53.897,78-52,76.565-52,74.638V40.691C-58,41.09-68.181,38.864-68.181,38.864z M-93,31h6v5h-6V31z M-83,48v6h-6v-6H-83z     M-98,37h5v5h4v6h-6v-6h-3v3h-5v-5h5V37z M-89,53v5h-5v-5H-89z M-95,49v5h-4v-5H-95z M-104,31h6v6h-6V31z M-117,31h10v10h-10V31z     M-107,74h-10V64h10V74z M-83,64h10v10h-10l0,0h-12v-5h-4v5h-5V59h-4v-5h-5v-5h-4v-4h14v4h-5v5h5v5h4v6h4v-6h6v6h6 M-73,39.768V54    h-5v5h5v-5h-5v5h-5v-5h4v-5h-4v-5h4v-2h-6V31h12V39.768z"/>
		<rect x="-115" y="66" fill="#000000" width="6" height="6"/>
		<rect x="-95" y="65" fill="#000000" width="6" height="4"/>
		<rect x="-115" y="33" fill="#000000" width="6" height="5"/>
	</g>
	<rect x="-81" y="66" fill="#000000" width="6" height="6"/>
</g>
</svg>