<svg xmlns="http://www.w3.org/2000/svg" xmlns:xlink="http://www.w3.org/1999/xlink" version="1.1" x="0px" y="0px" width="100px" height="100px" viewBox="0 0 100 100" enable-background="new 0 0 100 100" xml:space="preserve">
<g id="Captions">
</g>
<g id="Your_Icon">
	<path fill="#000000" d="M75.2,1.896c-1.206-1.206-2.843-1.884-4.55-1.884c-1.706,0-3.343,0.678-4.551,1.886L44.05,23.949   c-2.513,2.513-2.513,6.587,0.001,9.101c2.512,2.512,6.586,2.513,9.1-0.001l17.5-17.501L83.952,28.85l-17.501,17.5   c-2.514,2.514-2.514,6.587-0.001,9.1c1.257,1.257,2.903,1.886,4.551,1.886c1.646,0,3.294-0.629,4.55-1.885L97.602,33.4   c1.208-1.208,1.886-2.845,1.886-4.551c0-1.707-0.678-3.344-1.884-4.55L75.2,1.896z"/>
	<path fill="#000000" d="M29.35,98.987c1.706,0,3.343-0.678,4.551-1.886l22.05-22.051c2.513-2.513,2.513-6.587-0.001-9.101   c-2.512-2.512-6.586-2.513-9.1,0.001l-17.5,17.501L16.048,70.15l17.501-17.5c2.514-2.514,2.514-6.587,0.001-9.1   s-6.588-2.514-9.101-0.001L2.398,65.6c-1.208,1.208-1.886,2.845-1.886,4.551c0,1.707,0.678,3.344,1.884,4.55L24.8,97.104   C26.006,98.31,27.643,98.987,29.35,98.987z"/>
	<path fill="#000000" d="M29.349,70.151c1.257,1.256,2.904,1.885,4.551,1.885s3.294-0.629,4.55-1.885l32.902-32.902   c2.513-2.513,2.513-6.587,0-9.101c-2.514-2.512-6.589-2.512-9.101,0L29.349,61.051C26.836,63.564,26.836,67.638,29.349,70.151z"/>
</g>
</svg>