<svg xmlns="http://www.w3.org/2000/svg" xmlns:xlink="http://www.w3.org/1999/xlink" version="1.1" id="Layer_1" x="0px" y="0px" width="100px" height="100px" viewBox="0 0 100 100" enable-background="new 0 0 100 100" xml:space="preserve">
<path d="M91.5,18.417c0,3.728-3.022,6.75-6.75,6.75h-43c-3.728,0-6.75-3.022-6.75-6.75l0,0c0-3.728,3.022-6.75,6.75-6.75h43  C88.478,11.667,91.5,14.689,91.5,18.417L91.5,18.417z"/>
<path d="M91.5,72.75c0,3.729-3.022,6.75-6.75,6.75h-43c-3.728,0-6.75-3.021-6.75-6.75l0,0c0-3.729,3.022-6.75,6.75-6.75h43  C88.478,66,91.5,69.021,91.5,72.75L91.5,72.75z"/>
<path d="M84.75,79.333c-3.729,0-6.75-3.022-6.75-6.75v-53c0-3.728,3.021-6.75,6.75-6.75l0,0c3.729,0,6.75,3.022,6.75,6.75v53  C91.5,76.311,88.479,79.333,84.75,79.333L84.75,79.333z"/>
<path d="M7.936,49.11l15.054,15.054c2.097,2.097,5.497,2.097,7.594,0s2.097-5.497,0-7.594l-5.877-5.877h26.079  c2.967,0,5.371-2.404,5.371-5.369c0-2.966-2.404-5.369-5.371-5.369H24.698l5.882-5.875c2.099-2.096,2.101-5.495,0.005-7.594  c-1.049-1.05-2.424-1.575-3.799-1.575c-1.374,0-2.747,0.523-3.795,1.57L7.938,41.515c-1.008,1.007-1.574,2.373-1.575,3.797  C6.362,46.737,6.929,48.104,7.936,49.11z"/>
</svg>