<svg xmlns="http://www.w3.org/2000/svg" xmlns:xlink="http://www.w3.org/1999/xlink" version="1.1" id="Layer_1" x="0px" y="0px" width="100px" height="100px" viewBox="0 0 100 100" enable-background="new 0 0 100 100" xml:space="preserve">
<g>
	<path d="M96.139,71.277c5.983-10.852,4.108-24.357-4.725-33.189c-5.271-5.272-12.28-8.176-19.736-8.176   c-2.032,0-4.029,0.223-5.967,0.644c-1.358-2.104-2.943-4.085-4.758-5.898c-6.7-6.702-15.612-10.392-25.091-10.392   c-9.477,0-18.388,3.689-25.09,10.392C-0.911,36.34-2.941,54.617,5.756,68.529L2.646,80.888c-0.215,0.854,0.034,1.758,0.657,2.381   c0.622,0.624,1.526,0.871,2.381,0.658L18.508,80.7c5.283,2.964,11.263,4.527,17.362,4.527c0.001,0,0,0,0,0   c6.721,0,13.153-1.865,18.718-5.337c4.87,3.786,10.816,5.844,17.084,5.844c5.18,0,10.193-1.412,14.57-4.097l9.287,2.337   c0.853,0.216,1.757-0.034,2.379-0.657c0.623-0.623,0.873-1.527,0.658-2.381L96.139,71.277z M50.783,76.327   c-4.504,2.537-9.603,3.895-14.913,3.895c-5.545,0-10.973-1.502-15.696-4.345c-0.393-0.234-0.839-0.356-1.29-0.356   c-0.205,0-0.41,0.025-0.611,0.075l-9.75,2.454l2.354-9.355c0.173-0.687,0.046-1.416-0.349-2.005   c-8.071-12.04-6.479-28.228,3.785-38.491c5.756-5.757,13.41-8.927,21.55-8.927c8.141,0,15.795,3.17,21.552,8.927   c1.228,1.229,2.332,2.549,3.32,3.938c0.984,1.386,1.851,2.841,2.584,4.356c1.975,4.082,3.021,8.588,3.021,13.256   c0,8.141-3.17,15.793-8.925,21.55c-0.78,0.778-1.598,1.506-2.442,2.189C53.647,74.558,52.247,75.502,50.783,76.327z M91.035,71.517   l1.656,6.581l-6.275-1.578c-0.689-0.175-1.418-0.048-2.007,0.349c-3.767,2.527-8.172,3.861-12.736,3.861   c-4.65,0-9.086-1.38-12.848-3.94c0.729-0.62,1.443-1.267,2.128-1.951c6.702-6.701,10.393-15.612,10.393-25.09   c0-5.108-1.082-10.05-3.119-14.571c1.133-0.171,2.284-0.259,3.451-0.259c6.117,0,11.87,2.384,16.196,6.71   c7.455,7.456,8.872,18.963,3.443,27.987C90.974,70.185,90.872,70.87,91.035,71.517z"/>
	<g>
		<g>
			<path d="M35.074,60.067c-1.022,0-1.864-0.339-2.502-1.005c-0.626-0.652-0.945-1.531-0.945-2.611V50.17     c0-0.673,0.02-1.203,0.06-1.625c0.059-0.623,0.306-1.158,0.735-1.585c0.366-0.367,0.869-0.664,1.536-0.902     c0.568-0.202,1.344-0.396,2.372-0.597c0.965-0.192,1.737-0.484,2.287-0.866c0.552-0.385,0.976-0.803,1.255-1.244     c0.286-0.451,0.484-0.931,0.589-1.422c0.114-0.54,0.172-1.04,0.172-1.488c0-1.608-0.483-2.83-1.479-3.734     c-1.023-0.929-2.322-1.38-3.969-1.38c-1.297,0-2.429,0.273-3.364,0.812c-0.876,0.507-1.596,1.542-2.141,3.081     c-0.331,0.945-0.74,1.584-1.248,1.951c-0.503,0.363-1.131,0.549-1.864,0.549c-0.889,0-1.688-0.323-2.376-0.961     c-0.715-0.661-1.066-1.576-1.015-2.644c0.041-1.386,0.451-2.691,1.218-3.865c0.73-1.114,1.662-2.097,2.77-2.923     c1.101-0.821,2.349-1.461,3.709-1.901c1.354-0.438,2.749-0.66,4.144-0.66c1.776,0,3.461,0.282,5.009,0.838     c1.555,0.559,2.923,1.341,4.067,2.322c1.155,0.995,2.079,2.187,2.747,3.542c0.678,1.376,1.021,2.9,1.021,4.529     c0,3.251-0.96,5.922-2.856,7.94c-1.69,1.8-3.87,3.057-6.483,3.746v4.769c0,1.079-0.319,1.958-0.947,2.611     C36.937,59.729,36.096,60.067,35.074,60.067z"/>
		</g>
		<g>
			<path d="M35.074,72.678c-1.05,0-1.961-0.376-2.709-1.125c-0.749-0.748-1.128-1.659-1.128-2.71c0-1.049,0.379-1.961,1.128-2.709     c0.748-0.747,1.66-1.128,2.709-1.128c1.051,0,1.962,0.381,2.71,1.128c0.747,0.747,1.126,1.659,1.126,2.709     c0,1.051-0.379,1.963-1.127,2.71C37.036,72.302,36.125,72.678,35.074,72.678z"/>
		</g>
	</g>
</g>
</svg>