<svg xmlns="http://www.w3.org/2000/svg" xmlns:xlink="http://www.w3.org/1999/xlink" version="1.1" x="0px" y="0px" width="100px" height="100px" viewBox="0 0 100 100" enable-background="new 0 0 100 100" xml:space="preserve">
<g id="Captions">
</g>
<g id="Your_Icon">
	<path fill="none" d="M42.24,31.491c0,0.673,0.238,1.259,0.562,1.806v-3.633C42.478,30.211,42.24,30.806,42.24,31.491z"/>
	<path fill="none" d="M33.505,35.181c2.064,0,3.744-1.668,3.744-3.69c0-2.031-1.68-3.702-3.744-3.702   c-2.072,0-3.731,1.67-3.731,3.702C29.773,33.513,31.433,35.181,33.505,35.181z"/>
	<path fill="none" d="M21.033,35.181c2.066,0,3.735-1.668,3.735-3.69c0-2.031-1.669-3.702-3.735-3.702   c-2.059,0-3.729,1.67-3.729,3.702C17.303,33.513,18.974,35.181,21.033,35.181z"/>
	<path d="M42.802,33.297v7.753h0.565v-6.942C43.133,33.883,42.971,33.591,42.802,33.297z"/>
	<path d="M33.505,27.789c2.064,0,3.744,1.67,3.744,3.702c0,2.022-1.68,3.69-3.744,3.69c-2.072,0-3.731-1.668-3.731-3.69   C29.773,29.459,31.433,27.789,33.505,27.789z"/>
	<path d="M21.033,27.789c2.066,0,3.735,1.67,3.735,3.702c0,2.022-1.669,3.69-3.735,3.69c-2.059,0-3.729-1.668-3.729-3.69   C17.303,29.459,18.974,27.789,21.033,27.789z"/>
	<path fill="none" d="M21.033,35.181c2.066,0,3.735-1.668,3.735-3.69c0-2.031-1.669-3.702-3.735-3.702   c-2.059,0-3.729,1.67-3.729,3.702C17.303,33.513,18.974,35.181,21.033,35.181z"/>
	<path d="M79,56v27H17V41h26V22H16.717C12.728,22,9,25.592,9,29.538V89h78V56H79z"/>
	<g>
		<path fill="#000000" d="M87.541,24.634H73.852v-13.69C73.852,9.147,72.391,9,70.585,9c-1.797,0-3.264,0.147-3.264,1.944v13.69    H53.635c-1.806,0-1.968,1.466-1.968,3.253c0,1.806,0.162,3.261,1.968,3.261h13.687V44.83c0,1.797,1.467,1.953,3.264,1.953    c1.806,0,3.267-0.156,3.267-1.953V31.148h13.689c1.797,0,1.959-1.455,1.959-3.261C89.5,26.1,89.338,24.634,87.541,24.634z"/>
	</g>
</g>
</svg>