<svg xmlns="http://www.w3.org/2000/svg" xmlns:xlink="http://www.w3.org/1999/xlink" version="1.1" id="Layer_1" x="0px" y="0px" width="100px" height="100px" viewBox="0 0 100 100" enable-background="new 0 0 100 100" xml:space="preserve">
<path fill-rule="evenodd" clip-rule="evenodd" d="M53.174,0H22.285c-2.337,0-4.231,1.894-4.231,4.231v91.396  c0,2.338,1.895,4.231,4.231,4.231c0,0,3.458,0.997,7.331-4.228c3.978-5.367,15.518-23.699,15.518-23.699  c1.378-1.886,2.541-3.871,4.806-3.871c2.265,0,3.626,1.871,4.926,3.871c0,0,11.417,17.744,15.519,23.699  c3.836,5.569,7.33,4.228,7.33,4.228c2.337,0,4.231-1.894,4.231-4.231V4.231C81.946,1.894,80.052,0,77.715,0H46.827H53.174z"/>
</svg>
