<?xml version="1.0" encoding="UTF-8" standalone="no"?>
<svg
   xmlns:osb="http://www.openswatchbook.org/uri/2009/osb"
   xmlns:dc="http://purl.org/dc/elements/1.1/"
   xmlns:cc="http://creativecommons.org/ns#"
   xmlns:rdf="http://www.w3.org/1999/02/22-rdf-syntax-ns#"
   xmlns:svg="http://www.w3.org/2000/svg"
   xmlns="http://www.w3.org/2000/svg"
   xmlns:sodipodi="http://sodipodi.sourceforge.net/DTD/sodipodi-0.dtd"
   xmlns:inkscape="http://www.inkscape.org/namespaces/inkscape"
   version="1.1"
   id="Layer_1"
   x="0px"
   y="0px"
   width="100px"
   height="100px"
   viewBox="0 0 100 100"
   enable-background="new 0 0 100 100"
   xml:space="preserve"
   inkscape:version="0.48.4 r9939"
   sodipodi:docname="closeOthers.svg"><metadata
     id="metadata15"><rdf:RDF><cc:Work
         rdf:about=""><dc:format>image/svg+xml</dc:format><dc:type
           rdf:resource="http://purl.org/dc/dcmitype/StillImage" /><dc:title></dc:title></cc:Work></rdf:RDF></metadata><defs
     id="defs13"><linearGradient
       id="linearGradient5631"
       osb:paint="gradient"><stop
         style="stop-color:#009700;stop-opacity:1;"
         offset="0"
         id="stop5633" /><stop
         style="stop-color:#009700;stop-opacity:0;"
         offset="1"
         id="stop5635" /></linearGradient></defs><sodipodi:namedview
     pagecolor="#ffffff"
     bordercolor="#666666"
     borderopacity="1"
     objecttolerance="10"
     gridtolerance="10"
     guidetolerance="10"
     inkscape:pageopacity="0"
     inkscape:pageshadow="2"
     inkscape:window-width="1215"
     inkscape:window-height="776"
     id="namedview11"
     showgrid="false"
     inkscape:zoom="4.72"
     inkscape:cx="6.8365441"
     inkscape:cy="43.954478"
     inkscape:window-x="65"
     inkscape:window-y="24"
     inkscape:window-maximized="1"
     inkscape:current-layer="g6841" /><rect
     style="fill:none"
     id="rect3403"
     width="108.89831"
     height="70.762711"
     x="-112.71186"
     y="-58.474575" /><rect
     style="fill:none"
     id="rect3405"
     width="118.64407"
     height="58.898304"
     x="-5.9322033"
     y="-72.033897"
     rx="0.40000001"
     ry="0.40000001" /><rect
     style="fill:none"
     id="rect3407"
     width="33.474575"
     height="12.288136"
     x="85.593224"
     y="-34.745762"
     rx="0.40000001"
     ry="0.40000001" /><rect
     style="fill:none"
     id="rect3411"
     width="86.440681"
     height="75"
     x="-132.20338"
     y="-20.762712" /><rect
     style="fill:none"
     id="rect3415"
     width="117.37288"
     height="100.42373"
     x="-137.28813"
     y="-32.203388" /><g
     transform="matrix(0.63041324,0,0,0.63040661,-8.6775991,-10.038611)"
     id="Your_Icon"><g
       id="g6841"><path
         inkscape:connector-curvature="0"
         d="m 72.876387,26.997026 c -2.074666,-2.073778 -5.468444,-2.073778 -7.541333,0 L 50.248832,42.082359 35.163499,26.997026 c -2.073778,-2.073778 -5.468445,-2.073778 -7.542223,0 l -7.542222,7.542222 c -2.073777,2.074667 -2.073777,5.468445 0,7.542222 L 35.163499,57.166804 20.079054,72.252137 c -2.073777,2.073778 -2.073777,5.467556 0,7.542223 l 7.542222,7.542222 c 2.073778,2.073778 5.468445,2.073778 7.542223,0 L 50.248832,72.251248 65.334165,87.337471 c 2.072889,2.073777 5.466667,2.073777 7.541333,0 l 7.543111,-7.542223 c 2.072889,-2.074666 2.072889,-5.468444 0,-7.542222 L 65.334165,57.167693 80.419498,42.082359 c 2.072889,-2.073777 2.072889,-5.468444 0,-7.542222 l -7.543111,-7.543111 z"
         id="path6843" /><path
         style="fill:none;stroke:#000000;stroke-width:4.72020769;stroke-linecap:round;stroke-linejoin:miter;stroke-miterlimit:4;stroke-opacity:1;stroke-dasharray:none"
         d="M 89.09304,164.2603 89.753263,25.149549"
         id="path6875"
         inkscape:connector-curvature="0" /><path
         style="fill:none;stroke:#000000;stroke-width:4.72020769;stroke-linecap:round;stroke-linejoin:miter;stroke-miterlimit:4;stroke-opacity:1;stroke-dasharray:none"
         d="M 24.056335,98.56268 163.16561,99.22291"
         id="path6875-4"
         inkscape:connector-curvature="0" /><path
         inkscape:connector-curvature="0"
         d="m 72.876386,107.8972 c -2.074666,-2.07378 -5.468443,-2.07378 -7.541332,0 L 50.248832,122.98253 35.163498,107.8972 c -2.073777,-2.07378 -5.468444,-2.07378 -7.542222,0 l -7.542222,7.54222 c -2.073777,2.07466 -2.073777,5.46844 0,7.54222 l 15.084444,15.08533 -15.084444,15.08534 c -2.073777,2.07377 -2.073777,5.46755 0,7.54222 l 7.542222,7.54222 c 2.073778,2.07378 5.468445,2.07378 7.542222,0 l 15.085334,-15.08533 15.085333,15.08622 c 2.072888,2.07378 5.466667,2.07378 7.541333,0 l 7.543111,-7.54222 c 2.072888,-2.07467 2.072888,-5.46845 0,-7.54223 L 65.334165,138.06786 80.419497,122.98253 c 2.07289,-2.07378 2.07289,-5.46845 0,-7.54222 l -7.543111,-7.54311 z"
         id="path6843-7" /><path
         inkscape:connector-curvature="0"
         d="m 153.7757,107.8972 c -2.07466,-2.07378 -5.46844,-2.07378 -7.54133,0 l -15.08622,15.08533 -15.08534,-15.08533 c -2.07377,-2.07378 -5.46844,-2.07378 -7.54222,0 l -7.54222,7.54222 c -2.073777,2.07466 -2.073777,5.46844 0,7.54222 l 15.08444,15.08533 -15.08444,15.08534 c -2.073777,2.07377 -2.073777,5.46755 0,7.54222 l 7.54222,7.54222 c 2.07378,2.07378 5.46845,2.07378 7.54222,0 l 15.08534,-15.08533 15.08533,15.08622 c 2.07289,2.07378 5.46667,2.07378 7.54133,0 l 7.54311,-7.54222 c 2.07289,-2.07467 2.07289,-5.46845 0,-7.54223 l -15.08444,-15.08533 15.08533,-15.08533 c 2.07289,-2.07378 2.07289,-5.46845 0,-7.54222 l -7.54311,-7.54311 z"
         id="path6843-7-3" /><path
         inkscape:connector-curvature="0"
         d="m 153.7757,26.99703 c -2.07466,-2.07378 -5.46844,-2.07378 -7.54133,0 L 131.14815,42.082359 116.06281,26.99703 c -2.07377,-2.07378 -5.46844,-2.07378 -7.54222,0 l -7.54222,7.54222 c -2.073778,2.07466 -2.073778,5.46844 0,7.542219 l 15.08444,15.08533 -15.08444,15.08534 c -2.073778,2.07377 -2.073778,5.46755 0,7.54222 l 7.54222,7.54222 c 2.07378,2.07378 5.46845,2.07378 7.54222,0 l 15.08534,-15.08533 15.08533,15.08622 c 2.07289,2.07378 5.46667,2.07378 7.54133,0 l 7.54312,-7.54222 c 2.07288,-2.07467 2.07288,-5.46845 0,-7.54223 l -15.08445,-15.08533 15.08533,-15.08533 c 2.07289,-2.073779 2.07289,-5.468449 0,-7.542219 l -7.54311,-7.54311 z"
         id="path6843-7-31" /></g></g></svg>