<svg xmlns="http://www.w3.org/2000/svg" xmlns:xlink="http://www.w3.org/1999/xlink" version="1.1" id="Icon" x="0px" y="0px" width="100px" height="100px" viewBox="0 0 100 100" enable-background="new 0 0 100 100" xml:space="preserve">
<g>
	<path fill="#000000" d="M88.184,81.468c1.167,1.167,1.167,3.075,0,4.242l-2.475,2.475c-1.167,1.167-3.076,1.167-4.242,0   l-69.65-69.65c-1.167-1.167-1.167-3.076,0-4.242l2.476-2.476c1.167-1.167,3.076-1.167,4.242,0L88.184,81.468z"/>
</g>
<g>
	<path fill="#000000" d="M18.532,88.184c-1.167,1.166-3.076,1.166-4.242,0l-2.475-2.475c-1.167-1.166-1.167-3.076,0-4.242   l69.65-69.651c1.167-1.167,3.075-1.167,4.242,0l2.476,2.476c1.166,1.167,1.166,3.076,0,4.242L18.532,88.184z"/>
</g>
</svg>