<svg xmlns="http://www.w3.org/2000/svg" xmlns:xlink="http://www.w3.org/1999/xlink" version="1.1" id="Layer_1" x="0px" y="0px" width="100px" height="100px" viewBox="0 0 100 100" enable-background="new 0 0 100 100" xml:space="preserve">
<path fill-rule="evenodd" clip-rule="evenodd" d="M94.741,45.195C94.909,46.774,95,48.376,95,50c0,1.623-0.091,3.227-0.259,4.805  l-9.926,4.375c-0.835,3.173-2.096,6.17-3.711,8.938l3.928,10.115c-2.019,2.501-4.299,4.781-6.8,6.8l-10.115-3.927  c-2.768,1.614-5.765,2.875-8.938,3.71l-4.375,9.927C53.226,94.909,51.624,95,50,95c-1.624,0-3.226-0.091-4.805-0.258l-4.374-9.927  c-3.173-0.834-6.172-2.096-8.938-3.71l-10.115,3.927c-2.501-2.019-4.781-4.299-6.8-6.8l3.927-10.114  c-1.616-2.768-2.877-5.766-3.711-8.939l-9.926-4.374C5.09,53.227,5,51.623,5,50c0-1.624,0.09-3.226,0.258-4.805l9.925-4.373  c0.834-3.174,2.096-6.173,3.711-8.941l-3.927-10.113c2.019-2.502,4.298-4.781,6.8-6.8l10.113,3.926  c2.768-1.616,5.767-2.876,8.94-3.711l4.374-9.925C46.774,5.09,48.376,5,50,5c1.624,0,3.226,0.09,4.805,0.258l4.374,9.926  c3.174,0.834,6.172,2.095,8.939,3.711l10.114-3.927c2.501,2.019,4.781,4.298,6.8,6.8l-3.927,10.115  c1.614,2.767,2.876,5.765,3.71,8.938L94.741,45.195z M50,34.093c-8.785,0-15.907,7.122-15.907,15.907  c0,8.785,7.122,15.907,15.907,15.907c8.786,0,15.908-7.122,15.908-15.907C65.907,41.214,58.785,34.093,50,34.093z"/>
</svg>