<svg xmlns="http://www.w3.org/2000/svg" xmlns:xlink="http://www.w3.org/1999/xlink" xmlns:sketch="http://www.bohemiancoding.com/sketch/ns" width="82px" height="82px" viewBox="0 0 82 82" version="1.1">
    <title>Untitled</title>
    <description>Created with Sketch (http://www.bohemiancoding.com/sketch)</description>
    <defs/>
    <g id="Page-1" stroke="none" stroke-width="1" fill="none" fill-rule="evenodd" sketch:type="MSPage">
        <path d="M4.96363358,20.0700847 C3.00267568,23.4391125 1.50063205,27.1081743 0.543138979,30.9916339 L0.543138979,30.9916339 C0.700885997,30.9845406 0.859546444,30.9809559 1.01904415,30.9809559 C6.77201058,30.9809559 11.4357108,35.6446561 11.4357108,41.3976225 C11.4357108,47.1505889 6.77201058,51.8142892 1.01904415,51.8142892 C0.928941074,51.8142892 0.839105194,51.8131452 0.749550243,51.8108709 C1.76048237,55.5841659 3.28788216,59.1462063 5.25134368,62.4165861 C5.28837886,62.3784199 5.32576409,62.3404672 5.36349936,62.3027319 C9.43146094,58.2347703 16.0269291,58.2347703 20.0948906,62.3027319 C24.1628522,66.3706935 24.1628522,72.9661616 20.0948906,77.0341232 C20.0913754,77.0376383 20.0878584,77.0411505 20.0843394,77.0446596 L20.0843394,77.0446596 C23.3311378,78.9327517 26.8563426,80.3947265 30.5833617,81.353992 L30.5833617,81.353992 C30.5966266,75.6123304 35.2552312,70.9619117 41,70.9619117 C46.7447688,70.9619117 51.4033734,75.6123304 51.4166383,81.353992 C55.1436574,80.3947265 58.6688622,78.9327517 61.9156606,77.0446596 C61.9121416,77.0411505 61.9086246,77.0376383 61.9051094,77.0341232 C57.8371478,72.9661616 57.8371478,66.3706935 61.9051094,62.3027319 C65.9730709,58.2347703 72.5685391,58.2347703 76.6365006,62.3027319 C76.6742359,62.3404671 76.7116211,62.3784199 76.7486563,62.4165861 L76.7486563,62.4165861 C78.7121178,59.1462063 80.2395176,55.5841659 81.2504498,51.8108709 L81.2504498,51.8108709 C81.1608948,51.8131452 81.0710589,51.8142892 80.9809559,51.8142892 C75.2279894,51.8142892 70.5642892,47.1505889 70.5642892,41.3976225 C70.5642892,35.6446561 75.2279894,30.9809559 80.9809559,30.9809559 C81.1404536,30.9809559 81.299114,30.9845406 81.456861,30.9916339 C80.4993679,27.1081743 78.9973243,23.4391125 77.0363664,20.0700847 C76.9077571,20.2136701 76.7744685,20.3545453 76.6365006,20.4925132 C72.5685391,24.5604747 65.9730709,24.5604747 61.9051094,20.4925132 C57.8371478,16.4245516 57.8371478,9.82908345 61.9051094,5.76112188 C62.0781794,5.58805184 62.2558244,5.422345 62.4376549,5.26400138 L62.4376549,5.26400138 C59.0396516,3.22118886 55.3263519,1.64931038 51.388051,0.638661042 L51.388051,0.638661042 C51.407016,0.895517891 51.4166667,1.15496526 51.4166667,1.41666667 C51.4166667,7.1696331 46.7529664,11.8333333 41,11.8333333 C35.2470336,11.8333333 30.5833333,7.1696331 30.5833333,1.41666667 C30.5833333,1.15496526 30.592984,0.895517891 30.611949,0.63866104 C26.6736481,1.64931037 22.9603484,3.22118886 19.5623451,5.26400138 C19.7441756,5.422345 19.9218206,5.58805184 20.0948906,5.76112188 C24.1628522,9.82908345 24.1628522,16.4245516 20.0948906,20.4925132 C16.0269291,24.5604747 9.43146094,24.5604747 5.36349936,20.4925132 C5.22553149,20.3545453 5.09224289,20.2136701 4.96363358,20.0700847 L4.96363358,20.0700847 Z M41,55.5833333 C49.054153,55.5833333 55.5833333,49.054153 55.5833333,41 C55.5833333,32.945847 49.054153,26.4166667 41,26.4166667 C32.945847,26.4166667 26.4166667,32.945847 26.4166667,41 C26.4166667,49.054153 32.945847,55.5833333 41,55.5833333 Z" id="Oval-21" fill="#000000" sketch:type="MSShapeGroup"/>
    </g>
</svg>