<?xml version="1.0" encoding="UTF-8" standalone="no"?>
<svg
   xmlns:dc="http://purl.org/dc/elements/1.1/"
   xmlns:cc="http://creativecommons.org/ns#"
   xmlns:rdf="http://www.w3.org/1999/02/22-rdf-syntax-ns#"
   xmlns:svg="http://www.w3.org/2000/svg"
   xmlns="http://www.w3.org/2000/svg"
   xmlns:sodipodi="http://sodipodi.sourceforge.net/DTD/sodipodi-0.dtd"
   xmlns:inkscape="http://www.inkscape.org/namespaces/inkscape"
   version="1.1"
   x="0px"
   y="0px"
   width="71.961998"
   height="71.959999"
   viewBox="0 0 71.961998 71.959999"
   enable-background="new 0 0 100 100"
   xml:space="preserve"
   id="svg2"
   inkscape:version="0.48.4 r9939"
   sodipodi:docname="play.svg"><metadata
     id="metadata24"><rdf:RDF><cc:Work
         rdf:about=""><dc:format>image/svg+xml</dc:format><dc:type
           rdf:resource="http://purl.org/dc/dcmitype/StillImage" /><dc:title></dc:title></cc:Work></rdf:RDF></metadata><defs
     id="defs22" /><sodipodi:namedview
     pagecolor="#ffffff"
     bordercolor="#666666"
     borderopacity="1"
     objecttolerance="10"
     gridtolerance="10"
     guidetolerance="10"
     inkscape:pageopacity="0"
     inkscape:pageshadow="2"
     inkscape:window-width="1855"
     inkscape:window-height="1056"
     id="namedview20"
     showgrid="false"
     fit-margin-top="0"
     fit-margin-left="0"
     fit-margin-right="0"
     fit-margin-bottom="0"
     inkscape:zoom="6.675088"
     inkscape:cx="14.478708"
     inkscape:cy="52.168758"
     inkscape:window-x="65"
     inkscape:window-y="24"
     inkscape:window-maximized="1"
     inkscape:current-layer="svg2" /><g
     id="Captions"
     transform="translate(-14.019,-14.02)" /><g
     id="Layer_7"
     display="none"
     style="display:none"
     transform="translate(-14.019,-14.02)"><path
       display="inline"
       d="m 79.762,50.001 c 0,-3.41 2.764,-6.172 6.174,-6.172 V 29.718 H 14.064 v 14.111 c 3.414,0 6.175,2.762 6.175,6.172 0,3.414 -2.761,6.178 -6.175,6.178 V 70.283 H 85.936 V 56.179 c -3.411,0 -6.174,-2.764 -6.174,-6.178 z"
       id="path6"
       inkscape:connector-curvature="0"
       style="display:inline" /></g><g
     id="Your_Icon"
     display="none"
     style="display:none"
     transform="translate(-14.019,-14.02)"><path
       display="inline"
       d="M 84.649,28.072 69.086,43.635 56.364,30.916 71.926,15.351 c -7.393,-2.627 -15.958,-1.005 -21.872,4.914 -5.917,5.914 -7.541,14.48 -4.916,21.873 L 14.135,73.142 26.857,85.867 57.863,54.86 c 7.392,2.626 15.957,1.004 21.872,-4.913 5.917,-5.917 7.539,-14.48 4.914,-21.875 z"
       id="path9"
       inkscape:connector-curvature="0"
       style="display:inline" /></g><g
     id="Layer_6"
     display="none"
     style="display:none"
     transform="translate(-14.019,-14.02)"><path
       display="inline"
       d="M 71.885,38.652 V 14.066 H 28.107 v 24.586 h 0.016 l -2.274,16.811 h 0.012 v 22.156 h 1.979 v 8.314 h 7.386 v -8.314 h 29.551 v 8.314 h 7.387 v -8.314 h 1.982 V 55.463 h 0.008 L 71.885,38.652 z M 35.083,71.154 c -2.547,0 -4.612,-2.059 -4.612,-4.615 0,-2.549 2.065,-4.615 4.612,-4.615 2.549,0 4.62,2.066 4.62,4.615 0,2.557 -2.072,4.615 -4.62,4.615 z m 29.839,0 c -2.553,0 -4.613,-2.059 -4.613,-4.615 0,-2.549 2.061,-4.615 4.613,-4.615 2.547,0 4.617,2.066 4.617,4.615 0,2.557 -2.07,4.615 -4.617,4.615 z M 30.47,54.461 33.479,38.652 h 1.47 30.278 1.299 L 69.54,54.461 H 30.47 z"
       id="path12"
       inkscape:connector-curvature="0"
       style="display:inline" /></g><g
     id="Layer_5"
     display="none"
     style="display:none"
     transform="translate(-14.019,-14.02)"><path
       display="inline"
       d="m 86,18.67 -7.942,8.311 0.177,0.014 C 71.611,19.072 61.723,14.02 50.561,14.02 c -19.973,0 -36.109,16.107 -36.109,35.984 0,19.871 16.215,35.977 36.184,35.977 15.459,0 28.668,-9.658 33.825,-23.25 L 71.192,57.215 C 68.2,65.635 60.119,71.68 50.654,71.68 c -12.02,0 -21.779,-9.725 -21.779,-21.676 0,-11.961 9.767,-21.691 21.785,-21.691 7.195,0 13.566,3.5 17.541,8.867 L 59.515,45.268 86,45.256 V 18.67 z"
       id="path15"
       inkscape:connector-curvature="0"
       style="display:inline" /></g><g
     id="Layer_4"
     transform="translate(-14.019,-14.02)"><polygon
       points="14.019,14.02 85.981,50.004 14.019,85.98 "
       id="polygon18" /></g><path
     style="fill:#ff2a2a"
     inkscape:connector-curvature="0"
     d="M 66.055629,59.678693 C 48.222453,40.898999 30.389293,22.116945 12.556136,3.3348906 7.1801657,-2.3278504 -1.1485598,6.4451452 4.2251694,12.110247 22.058317,30.88994 39.891475,49.671995 57.724635,68.454047 c 5.378239,5.660384 13.704714,-3.11261 8.330994,-8.775354 l 0,0 z"
     id="path236-7" /><path
     style="fill:#ff2a2a"
     inkscape:connector-curvature="0"
     d="M 12.689833,68.959799 C 30.446886,50.022029 48.206172,31.084279 65.965459,12.146529 71.319839,6.4375696 63.024572,-2.4070404 57.66796,3.2995396 39.910907,22.237279 22.151621,41.175029 4.3923371,60.112779 c -5.35215003,5.71137 2.943115,14.55359 8.2974959,8.84702 l 0,0 z"
     id="path236-7-1" /></svg>