<?xml version="1.0" encoding="UTF-8" standalone="no"?>
<svg
   xmlns:dc="http://purl.org/dc/elements/1.1/"
   xmlns:cc="http://creativecommons.org/ns#"
   xmlns:rdf="http://www.w3.org/1999/02/22-rdf-syntax-ns#"
   xmlns:svg="http://www.w3.org/2000/svg"
   xmlns="http://www.w3.org/2000/svg"
   xmlns:sodipodi="http://sodipodi.sourceforge.net/DTD/sodipodi-0.dtd"
   xmlns:inkscape="http://www.inkscape.org/namespaces/inkscape"
   version="1.1"
   id="Capa_1"
   x="0px"
   y="0px"
   width="100"
   height="71.094002"
   viewBox="0 0 100 71.094002"
   enable-background="new 0 0 100 100"
   xml:space="preserve"
   inkscape:version="0.48.4 r9939"
   sodipodi:docname="playLow.svg"><metadata
     id="metadata13"><rdf:RDF><cc:Work
         rdf:about=""><dc:format>image/svg+xml</dc:format><dc:type
           rdf:resource="http://purl.org/dc/dcmitype/StillImage" /></cc:Work></rdf:RDF></metadata><defs
     id="defs11" /><sodipodi:namedview
     pagecolor="#ffffff"
     bordercolor="#666666"
     borderopacity="1"
     objecttolerance="10"
     gridtolerance="10"
     guidetolerance="10"
     inkscape:pageopacity="0"
     inkscape:pageshadow="2"
     inkscape:window-width="1855"
     inkscape:window-height="1056"
     id="namedview9"
     showgrid="false"
     fit-margin-top="0"
     fit-margin-left="0"
     fit-margin-right="0"
     fit-margin-bottom="0"
     inkscape:zoom="2.36"
     inkscape:cx="50"
     inkscape:cy="-66.146915"
     inkscape:window-x="65"
     inkscape:window-y="24"
     inkscape:window-maximized="1"
     inkscape:current-layer="Capa_1" /><g
     id="g3"
     transform="translate(0,-14.454)"><path
       d="m 92.5,14.454 h -85 c -4.141,0 -7.5,3.359 -7.5,7.5 v 56.094 c 0,4.141 3.359,7.5 7.5,7.5 h 85 c 4.141,0 7.5,-3.359 7.5,-7.5 V 21.954 c 0,-4.141 -3.359,-7.5 -7.5,-7.5 z M 50.001,72.058 c -12.183,0 -22.06,-9.875 -22.06,-22.057 0,-12.185 9.877,-22.06 22.06,-22.06 12.182,0 22.058,9.875 22.058,22.06 0,12.182 -9.876,22.057 -22.058,22.057 z"
       id="path5"
       inkscape:connector-curvature="0" /><polygon
       points="52.983,56.585 64.39,49.998 52.983,43.412 41.578,36.827 41.578,49.998 41.578,63.172 "
       id="polygon7" /></g></svg>