<svg xmlns="http://www.w3.org/2000/svg" xmlns:xlink="http://www.w3.org/1999/xlink" version="1.1" x="0px" y="0px" width="72px" height="72px" viewBox="0 0 72 72" enable-background="new 0 0 72 72" xml:space="preserve">
<g id="Layer_1" display="none">
	
		</g>
<g id="Layer_2">
	<path d="M60.667,7.737H34.379c-2.481,0-4.5,2.019-4.5,4.5v20.716h-9.437c-0.591,0-1.121,0.351-1.353,0.892   c-0.232,0.543-0.119,1.169,0.29,1.596l13.774,14.404c0.551,0.578,1.574,0.577,2.125,0.001L49.054,35.44   c0.408-0.428,0.521-1.054,0.289-1.595c-0.231-0.542-0.762-0.893-1.353-0.893h-9.111V16.737h17.288v42.104H14.379V7.737h-4.5   c-2.481,0-4.5,2.019-4.5,4.5v51.104c0,2.481,2.019,4.5,4.5,4.5h50.788c2.481,0,4.5-2.019,4.5-4.5V12.237   C65.167,9.755,63.148,7.737,60.667,7.737z"/>
</g>
</svg>