<svg xmlns="http://www.w3.org/2000/svg" xmlns:xlink="http://www.w3.org/1999/xlink" version="1.1" id="Layer_1" x="0px" y="0px" width="80px" height="80px" viewBox="0 0 80 80" enable-background="new 0 0 80 80" xml:space="preserve">
<g>
	<path d="M23.884,65.078L38.628,50.33c0.147-0.146,0.277-0.296,0.396-0.46c7.852,3.302,17.257,1.751,23.65-4.644   c8.438-8.436,8.438-22.115,0-30.554c-8.436-8.438-22.118-8.438-30.554,0c-6.38,6.381-7.938,15.75-4.67,23.59   c-0.167,0.123-0.328,0.259-0.478,0.409l-14.747,14.75c-1.907,1.903-1.553,5.348,0.788,7.688l3.181,3.18   C18.536,66.629,21.976,66.982,23.884,65.078z M31.744,29.822c0-8.741,7.084-15.825,15.824-15.825   c8.738,0,15.826,7.084,15.826,15.825c0,8.739-7.088,15.825-15.826,15.825C38.828,45.647,31.744,38.561,31.744,29.822z"/>
</g>
</svg>