<svg xmlns="http://www.w3.org/2000/svg" xmlns:xlink="http://www.w3.org/1999/xlink" version="1.1" id="Your_Icon" x="0px" y="0px" width="100px" height="100px" viewBox="0 0 100 100" enable-background="new 0 0 100 100" xml:space="preserve">
<g>
	<path fill-rule="evenodd" clip-rule="evenodd" d="M84.017,31.455c-4.562,0-8.62-2.01-11.451-5.152L31.273,48.561   c0.046,0.487,0.149,0.958,0.149,1.457c0,0.466-0.097,0.901-0.14,1.354L72.63,73.655c2.827-3.098,6.86-5.075,11.387-5.075   c8.541,0,15.469,6.928,15.469,15.469c0,8.544-6.928,15.469-15.469,15.469c-8.544,0-15.469-6.925-15.469-15.469   c0-0.209,0.05-0.403,0.061-0.61L26.895,60.955c-2.803,2.8-6.67,4.531-10.94,4.531c-8.544,0-15.469-6.925-15.469-15.469   c0-8.541,6.925-15.469,15.469-15.469c4.232,0,8.065,1.71,10.858,4.468l41.785-22.522c-0.006-0.173-0.05-0.333-0.05-0.508   c0-8.541,6.925-15.469,15.469-15.469c8.541,0,15.469,6.928,15.469,15.469C99.485,24.531,92.558,31.455,84.017,31.455z"/>
</g>
</svg>