<?xml version="1.0" encoding="UTF-8" standalone="no"?>
<svg
   xmlns:dc="http://purl.org/dc/elements/1.1/"
   xmlns:cc="http://creativecommons.org/ns#"
   xmlns:rdf="http://www.w3.org/1999/02/22-rdf-syntax-ns#"
   xmlns:svg="http://www.w3.org/2000/svg"
   xmlns="http://www.w3.org/2000/svg"
   xmlns:sodipodi="http://sodipodi.sourceforge.net/DTD/sodipodi-0.dtd"
   xmlns:inkscape="http://www.inkscape.org/namespaces/inkscape"
   version="1.1"
   id="Layer_1"
   x="0px"
   y="0px"
   width="45.454498"
   height="45.45425"
   viewBox="0 0 45.454498 45.45425"
   enable-background="new 0 0 100 100"
   xml:space="preserve"
   inkscape:version="0.48.4 r9939"
   sodipodi:docname="warning.svg"><metadata
     id="metadata15"><rdf:RDF><cc:Work
         rdf:about=""><dc:format>image/svg+xml</dc:format><dc:type
           rdf:resource="http://purl.org/dc/dcmitype/StillImage" /></cc:Work></rdf:RDF></metadata><defs
     id="defs13" /><sodipodi:namedview
     pagecolor="#ffffff"
     bordercolor="#666666"
     borderopacity="1"
     objecttolerance="10"
     gridtolerance="10"
     guidetolerance="10"
     inkscape:pageopacity="0"
     inkscape:pageshadow="2"
     inkscape:window-width="1215"
     inkscape:window-height="776"
     id="namedview11"
     showgrid="false"
     fit-margin-top="0"
     fit-margin-left="0"
     fit-margin-right="0"
     fit-margin-bottom="0"
     inkscape:zoom="2.36"
     inkscape:cx="22.72725"
     inkscape:cy="22.727"
     inkscape:window-x="65"
     inkscape:window-y="24"
     inkscape:window-maximized="1"
     inkscape:current-layer="Layer_1" /><path
     d="m 6.65625,6.65625 c -8.875,8.875 -8.875,23.265 0,32.141 8.876,8.876 23.266,8.876 32.142,0 8.875,-8.876 8.875,-23.266 0,-32.141 -8.877,-8.875 -23.266,-8.875 -32.142,0 z m 28.927,28.927 c -7.101,7.1 -18.613,7.1 -25.713,0 -7.101,-7.101 -7.101,-18.613 0,-25.713 7.1,-7.1 18.612,-7.1 25.713,0 7.1,7.101 7.1,18.613 0,25.713 z"
     id="path3"
     inkscape:connector-curvature="0" /><g
     id="g5"
     transform="translate(-27.27275,-27.27275)"><path
       d="m 47.982,36.647 c 0.542,-0.583 1.262,-0.876 2.151,-0.876 1.076,0 1.797,0.375 2.16,1.119 0.365,0.746 0.544,1.82 0.544,3.224 0,0.828 -0.042,1.666 -0.132,2.52 L 51.9,51.898 c -0.088,1.104 -0.277,1.949 -0.563,2.538 -0.292,0.59 -0.764,0.886 -1.427,0.886 -0.681,0 -1.148,-0.287 -1.413,-0.858 -0.264,-0.569 -0.451,-1.438 -0.563,-2.604 L 47.33,42.859 c -0.112,-1.755 -0.169,-3.014 -0.169,-3.778 10e-4,-1.04 0.273,-1.852 0.821,-2.434 z"
       id="path7"
       inkscape:connector-curvature="0" /><path
       d="m 51.996,63.476 c -0.567,0.502 -1.221,0.753 -1.977,0.753 -0.765,0 -1.431,-0.248 -2.001,-0.744 -0.57,-0.494 -0.858,-1.186 -0.858,-2.075 0,-0.776 0.273,-1.438 0.819,-1.984 0.545,-0.544 1.214,-0.814 2.005,-0.814 0.791,0 1.459,0.271 2.02,0.814 0.559,0.546 0.834,1.209 0.834,1.984 0,0.877 -0.279,1.565 -0.842,2.066 z"
       id="path9"
       inkscape:connector-curvature="0" /></g></svg>